{"glyphs":{"0":{"ha":610,"x_min":7,"x_max":590,"o":"m 519 170 l 519 170 q 224 28 425 1 q 114 94 162 36 q 68 171 84 129 q 70 486 7 335 q 99 540 81 513 q 125 574 111 557 q 139 591 132 582 l 141 593 l 141 595 q 143 620 142 608 q 146 663 144 643 q 222 825 157 755 q 330 880 274 880 q 332 880 331 880 q 437 829 385 880 q 494 749 472 793 q 578 367 590 563 q 519 170 572 263 m 260 132 l 260 132 q 409 213 359 132 q 469 427 473 316 q 404 695 464 574 q 364 755 387 728 l 360 761 q 317 782 345 781 l 316 782 l 315 781 q 274 759 290 775 q 247 728 257 743 q 222 688 233 711 q 208 633 212 665 l 208 623 l 245 624 q 294 625 271 624 q 294 625 294 625 q 332 613 315 625 q 343 593 342 606 q 336 572 345 581 q 301 551 321 557 l 283 545 q 229 526 256 536 q 157 460 181 509 q 144 233 102 349 q 174 176 157 199 q 259 132 205 132 q 260 132 260 132 z "},"1":{"ha":362,"x_min":-5,"x_max":305,"o":"m 30 633 l 30 633 q 43 643 37 637 q 176 820 129 711 q 182 837 179 828 q 193 861 187 849 q 203 878 197 871 q 236 893 216 895 q 267 869 257 890 q 274 836 273 852 q 275 761 277 793 q 286 349 264 589 q 304 106 296 223 q 302 56 305 78 q 283 28 299 36 q 250 37 264 20 q 228 71 237 50 q 197 161 209 119 q 159 490 156 313 l 163 656 q 113 610 118 615 q 112 610 113 610 q 106 605 109 608 q 28 569 66 576 q 1 578 12 566 q -3 586 -1 581 q -3 600 -5 592 q 11 618 1 610 q 30 633 20 626 z "},"2":{"ha":610,"x_min":1,"x_max":618,"o":"m 494 54 l 494 54 q 427 64 460 60 q 136 52 275 87 q 90 37 112 45 q 90 36 90 36 q 64 26 77 31 q 26 30 45 20 q 5 54 12 37 q 7 82 1 70 q 28 111 16 98 q 163 253 96 182 q 264 360 214 307 q 385 519 338 437 q 409 568 395 534 q 426 640 422 601 q 406 713 429 680 q 349 749 386 740 q 319 751 335 751 q 283 748 302 751 q 170 703 222 737 q 121 650 134 678 q 121 602 108 622 q 161 582 132 585 q 260 599 206 576 q 304 623 284 610 q 317 631 311 627 q 322 633 319 632 q 322 634 322 633 q 334 641 327 637 q 348 647 341 645 q 357 646 354 648 q 362 637 361 642 q 361 627 363 631 q 351 610 359 619 q 195 522 289 536 q 123 526 161 516 q 62 570 81 538 q 52 644 42 602 q 87 715 61 684 q 154 772 114 748 q 300 827 218 812 q 394 822 345 836 q 517 686 498 793 q 486 485 536 578 q 348 296 428 380 q 314 262 336 283 q 268 216 292 240 q 229 176 248 195 l 214 161 l 247 161 q 252 161 250 161 q 283 161 268 161 l 286 161 q 514 118 393 159 q 528 113 522 115 q 530 113 529 113 q 612 75 574 100 q 617 66 616 71 q 618 56 618 60 q 613 48 617 52 q 605 44 610 45 q 596 43 601 43 q 596 43 596 43 q 562 42 578 40 q 494 54 528 47 z "},"3":{"ha":610,"x_min":-10,"x_max":624,"o":"m 427 40 l 427 40 q 229 12 326 3 q 57 71 132 20 q -10 174 -8 117 q 12 233 -9 208 q 60 270 33 258 q 133 284 92 284 q 159 283 145 284 q 309 224 241 274 q 328 204 321 216 q 331 194 330 199 q 328 183 331 188 q 313 177 322 177 q 296 178 304 176 q 230 200 263 186 q 161 223 197 215 q 88 220 126 232 q 61 205 71 215 q 47 175 47 193 q 76 131 49 149 q 132 103 102 113 q 245 86 186 82 q 454 163 377 96 q 489 333 530 235 q 465 374 478 355 q 437 408 452 390 q 422 426 430 416 l 418 431 l 412 429 q 389 419 399 423 q 350 403 368 410 q 212 376 278 375 q 171 379 198 376 q 115 396 144 383 q 69 437 87 410 q 79 515 49 478 q 113 542 94 530 q 203 572 155 567 q 285 577 241 578 q 372 563 329 576 q 386 560 377 562 q 402 557 395 558 l 406 556 l 410 559 q 451 610 432 578 q 473 677 471 641 q 427 762 475 733 q 300 802 371 794 q 110 772 201 813 q 103 768 109 771 q 90 760 98 765 q 76 747 82 754 q 68 731 70 739 q 78 711 68 720 q 94 706 86 707 q 178 708 130 700 q 210 715 194 711 q 255 724 232 721 q 271 720 267 724 q 273 715 273 718 q 272 709 273 712 q 260 696 269 703 q 216 676 242 684 q 154 660 190 667 q 80 661 118 654 q 24 705 35 671 q 43 779 10 745 q 96 817 65 802 q 425 839 266 891 q 429 838 427 838 q 430 838 429 838 q 430 838 430 838 q 439 835 435 836 q 549 618 582 776 q 521 551 541 584 q 513 539 517 546 q 494 506 500 522 l 492 500 l 496 496 q 515 477 504 490 q 536 452 527 465 q 595 350 578 399 q 594 186 624 263 q 427 40 552 87 m 285 473 l 285 473 l 310 485 l 283 490 q 221 496 256 496 q 155 494 186 496 q 134 470 135 490 q 139 454 134 462 q 155 446 144 447 q 174 444 165 444 q 217 449 197 444 q 254 461 237 454 l 256 462 q 268 467 260 463 q 285 473 276 470 z "},"4":{"ha":611,"x_min":43,"x_max":560,"o":"m 559 893 l 559 893 q 560 890 559 892 q 560 888 560 888 q 537 713 536 789 l 536 657 q 525 357 532 508 l 524 337 q 502 126 521 232 q 463 20 489 63 q 401 -35 441 -18 q 380 -41 391 -39 q 290 -8 323 -53 q 260 68 264 26 q 268 166 256 122 q 291 225 274 186 q 326 304 308 264 l 334 320 l 307 315 q 262 307 284 311 q 231 302 241 302 q 68 391 119 292 q 43 486 44 439 q 136 829 43 671 q 158 855 145 842 q 159 855 159 855 q 164 861 161 859 q 184 868 172 869 q 191 865 188 867 q 197 854 195 862 q 195 849 196 852 q 186 827 191 839 q 118 587 134 715 q 116 498 114 544 q 140 417 117 456 q 224 375 169 370 q 264 383 248 377 q 429 479 347 416 l 433 481 l 433 486 q 437 536 435 511 q 449 652 443 593 l 450 661 q 465 774 456 718 q 489 857 472 812 q 515 895 498 877 l 515 897 q 528 905 521 903 q 542 906 536 907 q 558 896 552 905 q 559 893 559 895 m 406 94 l 406 94 q 423 215 420 151 q 422 329 426 279 l 420 368 l 406 332 q 393 309 396 311 q 309 126 327 228 q 323 43 302 86 q 342 25 330 31 q 351 22 347 22 q 367 27 359 22 q 380 37 375 31 q 406 94 400 63 z "},"5":{"ha":611,"x_min":5,"x_max":635,"o":"m 52 739 l 52 739 q 50 790 48 764 q 73 829 52 816 q 114 839 92 839 q 157 836 136 839 l 159 836 q 168 835 163 835 q 297 835 233 828 q 426 852 362 842 q 560 870 492 863 q 587 869 573 871 q 609 857 601 867 q 613 836 615 847 q 603 816 610 824 q 562 792 587 800 q 192 730 358 715 q 177 729 186 730 q 162 721 168 728 q 160 714 161 718 q 159 707 159 710 l 153 537 l 165 542 q 378 566 275 581 q 574 452 498 544 q 618 368 606 413 q 611 231 635 299 q 528 111 587 162 q 250 14 408 14 q 220 15 235 14 q 75 59 130 20 q 10 188 5 112 q 60 277 17 239 q 172 317 111 317 q 215 312 193 317 q 332 205 299 287 q 336 161 340 179 q 325 143 333 151 q 306 136 317 136 q 282 146 292 136 q 264 169 273 157 q 203 228 235 210 q 119 234 159 250 q 87 204 98 224 q 80 163 76 184 q 102 127 85 140 q 137 109 119 115 q 165 102 155 103 q 431 173 309 81 q 484 228 454 189 q 511 321 513 267 q 477 395 507 360 q 317 471 419 463 q 140 435 237 476 l 140 435 q 117 427 128 430 q 94 426 105 424 q 57 474 66 434 q 54 566 49 519 q 56 581 55 573 q 54 725 60 653 q 52 739 53 732 z "},"6":{"ha":610,"x_min":28,"x_max":607,"o":"m 602 376 l 602 376 q 377 30 571 141 q 239 -2 315 -6 q 102 57 157 3 q 37 199 47 111 q 37 320 28 265 q 260 793 83 608 q 355 874 307 841 q 438 912 397 903 q 456 913 447 913 q 474 912 467 913 q 501 882 499 907 q 498 877 500 880 q 498 877 498 877 q 494 871 496 873 q 490 867 492 868 q 393 812 435 848 q 318 732 352 775 q 139 313 175 561 q 137 230 134 271 q 198 112 140 149 q 319 106 256 79 q 416 172 381 135 q 513 383 500 261 q 507 449 516 416 q 487 476 501 467 q 456 484 473 486 q 425 477 439 483 q 360 420 388 461 q 336 343 336 384 l 336 340 l 338 338 q 349 324 343 331 q 373 287 362 307 q 380 249 380 274 q 368 222 380 233 q 343 214 357 212 q 259 262 293 223 q 234 327 237 286 q 265 458 229 396 q 419 579 321 553 q 528 566 481 595 q 593 472 574 536 q 602 376 607 420 z "},"7":{"ha":610,"x_min":28,"x_max":627,"o":"m 43 722 l 43 722 q 114 803 64 770 q 188 836 146 825 q 248 850 220 845 q 305 856 277 856 q 305 856 305 856 q 316 856 311 856 q 326 856 321 856 q 427 854 376 857 q 566 868 503 845 q 585 871 574 871 l 586 871 q 616 855 602 872 q 624 827 627 840 q 601 781 615 802 q 565 730 583 755 q 564 730 565 730 q 539 694 552 712 q 345 255 394 486 q 315 109 329 181 q 315 104 315 106 q 303 45 309 75 q 301 35 302 40 q 298 16 300 25 q 270 -6 292 -3 q 232 35 240 -3 q 231 138 223 87 q 362 586 257 400 q 418 675 389 631 q 443 714 431 695 q 453 730 446 719 q 468 753 460 741 l 476 764 l 462 766 q 328 777 386 777 q 220 764 262 777 q 149 727 182 755 q 140 711 142 720 q 140 711 140 711 q 138 706 139 708 l 136 700 l 140 696 q 157 686 149 688 q 173 685 165 684 q 173 685 173 685 l 176 685 q 193 685 184 685 q 236 684 214 685 q 252 679 243 684 l 254 678 q 262 663 261 674 q 258 646 264 652 q 256 644 257 645 q 255 644 255 644 q 249 638 252 640 q 122 608 183 602 q 100 611 111 609 q 44 651 61 620 q 43 722 28 684 z "},"8":{"ha":610,"x_min":22,"x_max":618,"o":"m 142 56 l 142 56 q 43 169 66 96 q 60 315 22 244 q 113 389 83 354 q 133 411 120 397 q 159 437 146 424 q 160 437 160 437 q 172 450 167 444 l 179 456 l 172 463 q 156 477 164 469 q 121 509 135 496 q 69 680 52 582 q 90 751 76 720 q 227 865 133 849 q 275 882 252 871 l 279 883 q 359 899 318 899 q 470 872 416 899 q 559 796 524 845 q 570 623 618 712 q 460 512 532 553 q 420 489 441 502 q 379 467 398 477 l 367 460 l 379 450 q 438 402 406 429 q 491 357 471 374 q 541 275 526 324 q 540 205 552 240 q 473 107 519 147 q 302 30 398 44 q 142 56 219 17 m 167 559 l 167 559 q 250 508 205 522 l 254 507 l 291 528 q 385 581 338 554 q 412 597 399 589 q 468 656 448 621 q 458 751 498 707 q 329 811 407 810 q 328 811 328 811 q 301 806 314 811 l 296 805 q 274 791 283 802 q 266 769 266 781 q 290 729 268 740 q 337 713 313 718 q 369 704 357 710 q 380 694 377 700 q 380 681 383 688 q 358 664 374 668 q 273 669 317 654 q 238 690 255 673 q 188 749 220 707 l 182 757 l 176 751 q 170 747 173 749 q 170 747 170 747 q 157 736 163 743 q 139 697 144 718 q 132 659 134 677 q 167 559 123 602 m 140 257 l 140 257 q 161 161 123 204 q 273 117 197 117 q 283 117 278 117 q 427 178 359 124 q 453 210 444 194 q 452 279 475 245 q 415 321 436 301 q 352 367 391 342 q 279 408 313 391 l 273 410 l 269 407 q 219 365 246 389 q 176 320 193 340 q 140 257 151 289 z "},"9":{"ha":610,"x_min":13,"x_max":591,"o":"m 182 -1 l 182 -1 q 145 -1 160 -5 q 119 29 121 3 q 121 34 120 31 q 125 40 123 37 q 130 44 127 43 q 226 99 185 62 q 301 178 267 136 q 480 599 445 351 q 483 681 486 640 q 422 799 479 763 q 300 805 363 832 q 203 739 239 777 q 107 528 119 650 q 113 463 104 494 q 133 435 119 445 q 163 427 146 426 q 194 434 180 429 q 259 492 232 450 q 283 568 283 527 l 283 570 l 281 573 q 271 587 277 580 q 247 624 258 605 q 239 662 239 637 q 252 689 239 677 q 276 696 263 699 q 361 650 327 688 q 386 585 383 625 q 355 453 391 515 q 201 332 298 357 q 92 346 139 317 q 26 439 45 374 q 18 535 13 492 q 243 882 49 770 q 380 913 305 918 q 517 854 463 908 q 583 713 572 800 q 582 591 591 646 q 359 119 537 303 q 264 37 313 70 q 182 -1 223 8 z "}," ":{"ha":345,"x_min":0,"x_max":0,"o":""}," ":{"ha":345,"x_min":0,"x_max":0,"o":""},"!":{"ha":233,"x_min":52,"x_max":188,"o":"m 186 873 l 186 873 q 185 830 188 849 q 166 472 158 669 q 169 331 169 401 q 169 275 169 302 q 168 265 169 270 q 168 260 168 262 q 156 245 166 252 q 132 243 143 239 q 100 273 109 252 q 85 322 88 302 q 71 463 77 393 l 71 465 q 70 496 70 480 q 70 511 70 503 q 87 736 68 638 q 123 857 96 798 q 147 888 130 876 q 175 890 162 897 q 186 873 186 884 m 113 0 l 113 0 q 68 22 86 -1 q 62 75 52 47 q 97 112 72 100 q 121 117 109 117 q 170 90 151 117 q 176 51 180 71 q 158 18 173 31 q 113 0 138 1 l 113 0 z "},"\"":{"ha":353,"x_min":17,"x_max":353,"o":"m 33 374 l 33 374 q 24 376 27 373 q 18 387 19 379 q 21 401 17 395 q 51 431 33 418 q 62 440 56 435 q 104 488 87 463 q 108 516 113 502 q 87 532 102 530 q 73 533 80 532 q 52 536 62 533 q 31 549 41 539 q 21 571 22 558 q 26 595 20 583 q 68 624 41 618 q 115 620 92 629 q 154 593 138 611 q 169 468 197 533 q 68 384 138 413 q 33 374 51 378 m 195 384 l 195 384 q 180 398 185 386 q 181 407 179 401 q 186 414 183 412 q 208 428 197 422 q 209 429 208 429 q 218 435 214 431 q 266 477 245 450 q 273 494 270 484 q 273 494 273 494 q 277 505 275 498 l 281 515 l 270 517 q 250 518 258 517 q 249 518 250 518 q 218 522 231 519 q 184 556 192 527 q 186 584 181 570 q 204 606 192 598 q 216 612 210 610 q 248 618 231 618 q 311 594 281 618 q 347 506 353 557 q 268 399 336 442 q 216 382 240 382 q 195 384 206 381 z "},"#":{"ha":709,"x_min":-34,"x_max":705,"o":"m 574 179 l 574 179 q 541 180 554 180 l 530 180 l 533 170 q 536 140 536 157 q 537 118 536 130 q 537 116 537 117 q 536 55 538 85 q 534 44 536 50 q 528 33 531 38 q 511 22 522 24 q 488 28 498 20 q 466 60 473 41 q 447 118 456 89 q 439 141 444 130 q 431 167 436 153 q 431 169 431 168 l 423 193 l 418 194 q 308 199 357 205 q 285 187 294 197 q 279 162 276 177 q 282 144 280 153 q 287 121 286 132 q 294 36 292 75 q 289 11 294 24 q 276 -1 286 3 q 250 -3 262 -7 q 225 18 235 3 q 189 100 201 50 q 175 155 182 126 q 175 157 175 156 q 169 182 172 171 l 168 187 l 163 189 q 143 193 153 193 q 132 192 138 193 q 113 190 123 191 q 72 185 93 187 q 44 186 57 184 q 21 203 29 189 q 19 219 18 210 q 24 233 20 228 q 58 258 43 249 q 122 298 90 278 q 149 314 136 306 l 153 316 l 153 320 q 162 427 161 372 q 166 497 163 465 l 166 502 l 163 505 q 148 512 155 510 q 134 514 141 513 q 134 514 134 514 q 129 515 132 514 q 102 517 115 516 q 23 528 62 522 q -26 541 -1 532 q -29 544 -27 541 q -33 552 -31 547 q -31 559 -34 555 q -25 565 -28 563 q 29 574 -4 576 q 66 572 48 574 q 68 572 67 572 q 129 570 98 571 q 144 570 134 570 q 168 570 155 570 l 174 570 l 176 577 q 180 595 178 585 q 181 596 180 595 q 194 644 188 624 q 216 705 203 675 q 222 715 218 710 q 232 723 227 720 q 252 726 240 730 q 260 722 256 725 q 265 713 264 719 q 267 673 269 690 q 262 603 265 639 q 262 601 262 602 q 260 581 261 590 l 259 572 l 267 571 q 407 568 324 558 l 414 568 l 415 574 q 418 587 416 582 q 420 598 419 592 l 422 604 q 426 619 424 612 q 427 623 426 621 q 446 694 435 658 q 461 722 452 708 q 461 723 461 723 q 465 730 463 726 q 474 736 467 733 q 496 741 480 739 q 514 717 513 732 q 513 668 515 696 q 509 616 511 644 q 509 616 509 616 q 506 582 507 597 l 506 574 l 513 572 q 533 570 526 570 q 537 570 535 570 q 570 571 553 570 q 583 572 576 571 q 599 572 591 572 q 644 574 621 573 q 665 570 653 573 q 688 545 683 565 q 680 516 692 528 q 652 496 666 503 q 604 473 629 484 q 578 460 591 467 q 549 447 564 454 q 511 429 530 437 l 507 427 l 506 422 q 505 401 504 410 q 505 401 505 401 q 506 393 506 397 q 515 305 508 351 q 520 264 518 282 l 521 258 l 532 254 q 546 251 540 252 q 561 248 553 249 q 596 241 578 244 q 597 241 596 241 q 650 230 623 236 q 686 220 667 227 q 700 210 694 216 q 705 197 705 204 q 698 184 704 190 q 683 178 692 178 q 634 177 658 177 q 633 177 633 177 q 607 177 620 177 q 575 179 593 178 q 574 179 574 179 m 255 383 l 255 383 l 263 383 q 283 389 273 384 q 303 400 294 394 q 304 401 303 400 q 312 406 308 404 q 351 425 329 414 q 406 452 382 438 l 410 454 l 410 458 q 411 463 410 458 q 411 472 411 467 q 412 483 412 477 q 412 490 412 488 l 413 500 l 404 500 q 397 500 401 500 q 397 500 397 500 q 380 500 390 500 l 357 500 q 355 500 356 500 q 281 501 319 501 q 279 501 281 501 q 277 501 279 501 q 269 502 273 502 q 260 500 264 502 l 256 498 l 255 493 q 252 435 252 454 q 254 391 252 416 l 255 383 m 419 276 l 419 276 q 416 363 420 325 l 416 376 l 404 371 q 395 367 401 370 q 385 363 390 365 q 378 360 380 361 q 273 302 317 338 q 266 292 268 298 q 266 281 264 286 q 272 271 267 275 q 282 265 277 266 q 321 262 301 262 q 388 266 354 262 q 411 267 399 267 l 419 268 l 419 276 m 505 468 l 505 468 l 517 473 q 517 473 517 473 q 534 480 519 474 q 565 493 548 486 q 594 505 583 500 q 602 512 600 509 q 602 518 603 515 q 600 522 601 520 q 594 525 598 524 q 580 526 589 526 q 554 524 571 526 q 512 519 538 522 l 505 518 l 505 468 z "},"$":{"ha":772,"x_min":25,"x_max":757,"o":"m 404 -93 l 404 -93 q 388 -56 393 -75 q 385 -21 384 -36 l 385 -12 l 375 -12 q 221 3 283 -16 q 124 47 159 22 q 28 189 37 109 q 60 271 25 239 q 161 311 96 303 q 233 294 197 309 q 290 251 270 279 q 292 210 304 228 q 250 195 278 191 q 223 203 239 197 q 171 219 197 214 q 129 208 145 224 l 128 206 l 127 205 q 141 149 117 174 q 253 98 182 112 q 362 94 325 85 l 370 97 l 369 104 q 365 149 366 127 q 365 150 365 149 q 363 179 364 163 q 366 432 357 312 l 366 437 l 361 440 q 330 454 352 447 q 208 514 267 477 q 117 726 69 601 q 200 827 147 789 q 307 883 252 865 q 395 907 361 902 q 419 917 408 908 q 435 948 431 925 q 441 980 439 964 q 450 1018 445 1000 q 468 1049 456 1036 q 495 1053 481 1061 q 512 1032 506 1046 q 515 1004 517 1018 l 515 1003 q 513 987 515 996 q 511 936 509 963 q 541 901 513 909 q 633 860 587 891 q 699 777 680 829 q 694 715 707 747 q 659 661 681 684 q 610 634 629 631 q 607 635 609 634 q 603 639 605 636 q 599 647 600 642 q 601 666 596 657 q 617 686 606 675 q 634 710 627 697 l 634 710 q 629 766 646 739 q 573 814 609 796 q 509 834 536 831 l 501 835 l 499 827 q 493 740 493 792 q 491 691 492 715 q 486 654 490 668 l 482 623 q 482 621 482 621 q 471 512 476 564 l 470 507 l 475 504 q 511 490 491 494 q 535 484 523 488 l 536 483 q 739 295 703 444 l 739 294 q 723 159 757 214 q 623 67 690 104 q 474 3 556 31 l 469 1 l 468 -4 q 466 -34 466 -18 q 459 -82 465 -63 q 433 -106 453 -101 q 416 -104 425 -107 q 404 -94 408 -101 l 404 -93 m 460 409 l 460 409 q 453 290 454 376 q 468 127 453 204 l 470 119 l 477 120 q 582 152 528 122 q 648 233 635 182 l 648 233 q 609 352 654 307 q 498 410 564 397 q 483 414 491 412 q 482 414 482 414 q 471 416 476 414 l 462 418 l 460 409 m 380 572 l 380 572 q 390 641 385 607 q 390 642 390 642 q 410 802 402 720 q 410 805 410 804 q 411 806 411 806 q 412 824 412 814 l 411 833 l 401 832 q 201 712 264 808 l 201 711 q 196 649 184 680 q 257 584 212 610 q 347 541 302 558 q 348 540 347 541 q 363 534 356 536 l 374 529 l 376 549 q 380 572 378 559 z "},"%":{"ha":849,"x_min":-28,"x_max":846,"o":"m 77 26 l 77 26 q 68 25 73 24 q 59 27 63 25 q 54 30 56 28 q 52 39 52 34 q 55 48 52 43 q 87 87 70 68 q 149 156 118 121 q 151 157 150 157 q 260 278 205 217 q 470 552 395 431 q 473 556 471 554 q 473 556 473 556 q 480 568 477 561 q 479 586 483 576 l 476 591 l 470 591 q 467 591 469 591 q 467 591 467 591 q 467 591 467 591 q 466 591 467 591 q 459 590 463 591 q 452 588 456 590 q 427 573 439 581 q 395 553 412 563 q 146 488 274 488 q 146 488 146 488 q 66 501 104 488 q -20 600 -7 528 q -12 694 -28 648 q 69 818 12 764 q 157 863 104 850 q 243 858 199 872 q 315 811 287 844 q 339 765 331 794 q 331 696 347 736 q 272 599 304 632 l 247 573 l 283 585 q 291 587 288 586 q 356 617 323 599 q 490 711 427 659 q 518 732 504 722 q 530 741 524 736 q 667 879 621 811 q 684 897 674 888 l 686 899 q 702 905 692 903 q 719 904 711 907 q 734 890 728 899 q 740 873 741 881 q 732 848 737 859 q 630 659 689 763 q 496 450 570 555 q 172 91 364 267 q 112 45 143 66 l 102 37 q 82 28 94 32 q 82 28 82 28 q 77 26 79 26 m 233 703 l 233 703 q 239 760 253 730 q 189 790 224 788 q 126 770 153 792 q 50 650 66 720 q 47 627 47 640 q 69 578 48 596 q 119 556 90 560 q 146 554 132 554 q 216 568 184 554 l 219 569 l 220 571 q 222 573 221 572 l 232 587 l 214 587 q 201 588 208 587 q 170 608 177 593 q 176 637 165 621 q 200 666 186 652 q 208 675 204 671 q 217 685 212 680 q 218 685 218 685 q 233 703 226 693 m 654 1 l 654 1 q 488 79 537 -14 q 482 209 460 143 q 566 313 505 275 q 583 322 573 317 q 602 327 593 327 q 604 326 603 327 q 693 345 652 326 l 694 345 q 707 347 700 347 q 713 348 711 348 q 801 310 767 347 q 840 198 846 261 q 778 71 832 127 q 654 1 724 14 m 544 205 l 544 205 q 542 123 530 166 q 578 77 551 92 q 615 67 595 67 q 641 71 628 67 q 755 186 728 98 q 749 249 764 218 q 724 267 741 262 q 697 264 709 271 q 677 250 686 258 q 677 250 677 250 q 661 239 669 245 q 631 227 644 227 q 602 248 618 227 q 591 256 597 253 q 591 256 591 256 q 588 258 589 256 l 583 260 l 578 257 q 556 232 564 246 q 544 205 548 218 z "},"&":{"ha":692,"x_min":33,"x_max":770,"o":"m 225 -22 l 225 -22 q 133 18 168 -9 q 81 73 98 46 q 52 241 33 154 q 108 361 66 300 q 140 409 123 385 q 141 410 140 410 q 156 431 149 420 l 159 435 l 157 439 q 151 460 154 450 q 138 505 144 483 q 108 652 117 572 q 114 779 101 707 q 154 873 123 831 q 281 942 201 937 q 420 888 365 945 q 463 790 460 846 q 452 703 465 743 q 378 557 429 626 q 336 505 358 530 q 316 481 326 493 q 298 458 307 470 q 296 456 297 458 l 283 441 l 286 435 q 348 322 313 375 q 422 220 384 269 q 429 210 426 215 q 430 210 429 210 q 457 178 441 192 q 490 175 473 168 q 496 179 494 177 q 571 315 553 240 q 566 388 581 355 q 540 413 558 406 q 503 410 522 419 q 462 370 477 397 q 449 345 455 357 q 439 322 444 333 q 437 321 438 322 q 435 321 437 321 q 425 328 427 324 q 427 395 413 356 q 504 475 448 453 q 608 454 559 498 q 650 366 643 422 q 644 279 655 320 q 589 157 628 218 q 562 117 576 138 q 546 95 554 106 l 543 90 l 546 84 q 554 73 551 78 q 568 56 562 64 q 700 -62 640 -16 q 749 -107 726 -82 q 766 -163 770 -130 q 745 -192 762 -182 q 716 -193 730 -199 q 568 -103 636 -156 q 505 -50 536 -77 q 505 -49 505 -50 q 470 -19 487 -34 q 446 -1 459 -10 q 446 0 446 -1 q 436 7 440 4 l 432 11 l 420 6 q 372 -11 396 -4 q 225 -22 290 -34 m 206 814 l 206 814 q 191 713 186 763 q 228 564 201 627 q 229 560 229 562 q 229 560 229 560 q 234 551 231 555 q 240 542 236 546 l 246 536 l 252 542 q 302 591 281 567 q 341 648 323 616 q 385 756 375 707 q 385 796 387 774 q 345 859 380 836 q 264 869 307 882 q 206 814 222 854 m 193 333 l 193 333 q 125 195 125 265 q 162 104 130 134 q 231 69 194 75 q 258 67 244 67 q 352 85 309 67 l 361 89 l 357 98 q 349 111 353 106 q 341 122 346 116 q 218 311 264 225 q 215 317 216 313 q 215 317 215 317 q 207 332 212 323 l 201 341 l 193 333 z "},"'":{"ha":191,"x_min":17,"x_max":191,"o":"m 33 391 l 33 391 q 18 406 22 393 q 19 414 17 409 q 24 422 21 420 q 45 436 35 429 q 46 436 45 436 q 56 442 51 439 q 104 486 83 458 q 111 501 108 492 q 115 512 113 506 l 119 523 l 107 524 q 87 526 96 525 q 87 526 87 526 q 56 529 69 527 q 22 564 30 534 q 24 592 19 578 q 41 614 30 606 q 54 620 48 618 q 85 625 69 625 q 149 602 119 625 q 184 514 191 565 q 106 407 174 450 q 53 389 78 389 q 33 391 43 389 z "},"(":{"ha":328,"x_min":47,"x_max":378,"o":"m 373 -241 l 373 -241 q 361 -257 370 -251 q 341 -264 353 -264 q 304 -254 317 -265 l 300 -251 q 269 -218 282 -236 q 222 -141 244 -184 q 98 224 129 59 q 75 374 85 294 q 66 487 70 426 q 61 553 64 517 q 137 1053 47 821 q 203 1187 161 1122 q 247 1237 222 1213 q 288 1246 264 1253 q 297 1240 293 1244 q 303 1231 301 1236 q 303 1227 303 1230 q 302 1224 304 1225 q 258 1141 275 1185 q 230 1054 241 1098 q 185 798 195 926 q 184 606 178 699 q 201 439 191 513 q 296 53 227 253 q 353 -125 326 -37 l 366 -164 q 376 -207 374 -186 q 373 -241 378 -221 z "},")":{"ha":331,"x_min":-32,"x_max":346,"o":"m 3 -245 l 3 -245 q -10 -224 -9 -237 q -9 -189 -12 -206 q 7 -132 -2 -160 q 7 -132 7 -132 q 12 -117 9 -124 q 130 330 77 107 l 143 384 q 172 620 173 503 q 135 878 172 748 q 55 1085 99 994 q -6 1175 32 1137 q -26 1198 -17 1187 q -31 1204 -28 1201 q -30 1217 -32 1213 q -24 1225 -28 1222 q 3 1229 -13 1234 q 65 1194 41 1218 l 69 1190 q 120 1133 98 1164 q 286 433 346 803 q 256 292 275 358 q 180 37 217 153 q 98 -157 154 -51 q 54 -227 79 -193 q 28 -247 46 -237 q 3 -245 16 -252 z "},"*":{"ha":465,"x_min":17,"x_max":448,"o":"m 416 524 l 416 524 q 439 477 433 503 q 436 459 443 466 q 428 455 433 456 q 420 455 424 454 l 414 458 q 380 479 395 467 q 347 509 362 493 q 329 526 338 517 q 296 553 314 539 q 289 556 293 555 q 283 556 286 557 q 282 556 282 556 q 279 556 280 556 l 273 557 l 271 552 q 263 512 262 532 q 261 489 263 500 q 248 452 256 469 q 233 444 243 444 q 225 446 229 444 q 220 450 222 448 q 218 454 218 452 q 209 484 211 467 q 203 533 205 509 q 201 560 203 547 q 191 574 200 569 q 180 578 185 578 q 174 576 176 578 q 168 574 171 575 q 168 574 168 574 q 154 566 161 571 q 126 545 140 556 q 92 521 109 533 q 83 515 87 517 q 83 515 83 515 q 42 492 64 498 q 31 493 35 492 q 25 498 27 495 q 23 523 17 512 l 26 528 q 52 568 37 550 q 114 631 82 601 q 136 652 125 642 q 138 654 136 654 q 138 655 138 655 q 150 668 144 661 q 157 687 155 675 l 157 690 l 155 693 q 53 779 116 742 q 49 792 49 787 q 51 800 49 797 q 54 803 52 802 q 73 812 61 810 q 121 802 97 816 q 149 785 136 793 q 181 765 165 774 q 197 760 189 762 q 205 759 201 760 l 213 757 l 215 765 q 220 786 218 775 q 220 787 220 786 q 233 833 227 810 q 262 925 245 876 q 286 947 268 941 q 301 939 297 946 q 308 918 308 926 q 304 884 307 901 q 300 856 302 870 q 298 846 300 851 q 296 829 296 838 q 300 811 296 820 l 302 808 l 304 807 q 307 806 306 806 q 308 805 308 806 q 315 803 311 804 q 323 803 319 802 q 347 813 335 808 q 374 824 361 819 q 424 826 401 833 q 436 819 430 825 q 446 804 443 814 q 438 779 448 789 q 421 766 431 772 q 412 759 416 762 l 393 745 q 317 686 355 716 q 307 673 311 680 q 307 672 307 673 q 304 669 306 670 l 302 666 l 303 663 q 311 643 305 651 q 322 629 316 635 q 323 629 323 629 q 328 623 326 627 q 374 571 351 597 q 416 524 395 547 z "},"+":{"ha":524,"x_min":17,"x_max":507,"o":"m 377 476 l 377 476 q 362 475 370 475 q 361 475 362 475 q 322 465 342 475 l 321 465 q 310 446 312 456 q 309 429 309 437 q 311 391 310 410 q 313 315 313 353 q 309 281 314 299 q 301 267 307 273 q 283 258 295 260 q 250 271 264 256 q 227 321 233 291 q 213 399 219 360 l 210 418 q 209 426 210 422 q 209 427 209 426 q 206 443 208 434 q 197 460 204 452 q 182 470 191 467 q 166 472 174 472 q 158 473 162 473 q 54 507 97 481 q 21 536 37 519 q 17 548 17 541 q 20 561 17 555 q 41 572 28 572 q 44 572 43 572 q 61 568 52 571 q 73 566 67 567 l 89 562 q 155 549 121 555 q 175 551 164 547 q 199 568 186 554 l 200 570 l 201 573 q 202 589 201 581 q 202 589 202 589 q 207 631 204 610 q 235 722 214 685 q 259 743 244 736 q 268 744 262 745 q 279 741 274 743 q 288 730 288 736 q 288 694 291 713 q 286 593 279 636 q 291 571 287 582 q 292 571 292 571 q 294 562 293 566 l 296 556 l 302 555 q 312 553 307 554 q 334 550 323 551 q 405 550 370 550 q 407 550 406 550 q 463 550 435 550 q 500 537 484 550 q 507 522 507 531 q 506 516 507 519 q 502 511 505 513 q 488 499 495 505 q 474 493 481 494 q 395 479 435 484 q 377 476 386 477 z "},",":{"ha":227,"x_min":17,"x_max":210,"o":"m 31 -123 l 31 -123 q 50 -113 40 -118 q 71 -101 60 -107 q 89 -87 82 -94 q 104 -69 96 -81 q 124 -37 112 -58 l 129 -28 l 119 -24 q 104 -18 111 -20 q 82 -7 91 -13 q 67 52 48 15 q 134 95 90 91 q 141 95 138 95 q 191 68 172 95 q 204 1 210 39 q 151 -102 195 -59 q 46 -153 107 -146 q 25 -150 37 -153 q 21 -149 22 -149 q 19 -146 20 -148 q 17 -141 18 -144 q 17 -138 17 -138 q 20 -134 18 -136 q 31 -123 26 -127 z "},"-":{"ha":410,"x_min":17,"x_max":393,"o":"m 27 398 l 27 398 q 19 412 22 403 q 20 429 17 421 q 42 445 26 443 q 64 446 53 446 q 79 446 72 446 q 134 444 104 446 q 136 444 135 444 q 163 443 149 444 l 164 443 l 196 446 q 210 447 203 446 q 309 456 257 452 q 323 458 315 457 q 352 460 338 461 q 385 450 366 459 q 389 446 387 448 q 391 441 390 443 q 389 422 393 431 q 357 398 379 406 q 197 361 279 370 q 64 378 134 355 q 28 397 46 385 l 27 398 z "},"­":{"ha":410,"x_min":17,"x_max":393,"o":"m 27 398 l 27 398 q 19 412 22 403 q 20 429 17 421 q 42 445 26 443 q 64 446 53 446 q 79 446 72 446 q 134 444 104 446 q 136 444 135 444 q 163 443 149 444 l 164 443 l 196 446 q 210 447 203 446 q 309 456 257 452 q 323 458 315 457 q 352 460 338 461 q 385 450 366 459 q 389 446 387 448 q 391 441 390 443 q 389 422 393 431 q 357 398 379 406 q 197 361 279 370 q 64 378 134 355 q 28 397 46 385 l 27 398 z "},".":{"ha":170,"x_min":17,"x_max":153,"o":"m 81 104 l 81 104 q 136 82 116 103 q 151 36 153 63 q 128 -6 149 10 q 83 -16 108 -22 q 50 -5 67 -13 q 25 17 34 3 q 18 47 17 31 q 54 98 21 83 q 76 103 66 102 q 81 104 79 104 z "},"/":{"ha":496,"x_min":-1,"x_max":653,"o":"m 16 -153 l 16 -153 q 0 -104 3 -144 q 0 -77 -1 -90 q 19 5 4 -35 q 54 84 35 45 q 75 132 64 108 q 154 295 104 201 q 521 880 319 606 q 587 963 547 916 q 614 985 600 977 q 641 985 627 993 q 651 973 648 979 q 652 961 653 966 q 644 928 650 941 q 608 862 627 895 q 554 772 581 817 q 463 620 509 697 q 313 355 385 486 q 183 96 252 245 q 104 -60 142 11 q 64 -123 90 -88 q 39 -146 54 -136 q 28 -152 34 -150 q 16 -153 22 -155 z "},":":{"ha":168,"x_min":17,"x_max":151,"o":"m 99 399 l 99 399 q 135 383 121 398 q 151 345 150 368 q 133 302 151 319 q 94 287 117 286 q 57 304 72 288 q 41 342 43 319 q 59 383 41 366 q 97 399 76 399 q 99 399 98 399 m 77 5 l 77 5 q 36 21 53 5 q 17 62 18 38 q 35 106 17 87 q 79 124 55 124 q 81 124 81 124 q 122 106 106 123 q 138 63 138 89 q 120 22 137 39 q 78 5 103 6 q 77 5 77 5 z "},";":{"ha":214,"x_min":17,"x_max":197,"o":"m 127 451 l 127 451 q 172 433 153 451 q 193 387 193 414 q 176 344 193 362 q 130 325 157 325 q 130 325 130 325 q 130 325 130 325 q 85 342 103 325 q 64 385 66 359 q 79 429 62 410 q 123 451 97 449 q 127 451 125 451 m 33 -171 l 33 -171 q 24 -169 27 -172 q 18 -158 19 -165 q 21 -143 17 -149 q 51 -114 33 -127 q 62 -104 56 -109 q 104 -56 87 -82 q 108 -28 113 -43 q 87 -13 102 -15 q 73 -12 81 -12 q 73 -12 73 -12 q 52 -9 62 -12 q 31 5 41 -5 q 21 26 22 14 q 26 50 20 39 q 68 79 41 73 q 115 75 92 84 q 154 48 138 66 q 169 -77 197 -12 q 68 -161 138 -132 q 33 -171 51 -167 z "},"<":{"ha":377,"x_min":-18,"x_max":351,"o":"m 350 212 q 349 179 350 212 q 324 145 348 147 q 267 159 300 142 q 165 229 190 208 q 148 242 156 236 q 76 298 111 270 q 67 305 71 302 q 9 354 37 328 q -11 382 -4 366 q -12 416 -18 398 q -2 435 -6 430 q 16 449 2 439 q 26 456 21 453 q 74 488 39 465 q 210 588 118 517 q 220 597 215 592 q 266 627 242 616 q 317 627 289 639 q 338 589 345 612 q 309 545 331 567 q 269 509 286 523 q 264 505 267 507 q 152 410 232 478 q 142 405 148 408 q 133 399 138 402 q 215 352 162 382 q 282 318 268 322 q 315 306 302 313 q 339 288 327 300 q 350 212 351 276 z "},"=":{"ha":638,"x_min":17,"x_max":621,"o":"m 498 260 l 498 260 q 390 239 446 248 q 283 232 335 230 l 282 232 l 282 232 q 118 245 185 229 q 54 264 86 253 q 32 280 41 271 q 26 288 28 283 q 26 299 24 292 q 31 310 27 306 q 39 315 35 313 q 58 319 48 319 q 76 319 67 319 q 133 319 104 319 q 422 334 296 315 q 526 343 474 342 q 550 344 538 343 q 584 338 566 345 q 595 333 589 337 q 602 319 600 328 q 602 306 603 313 q 593 294 600 299 q 563 277 577 281 q 498 260 526 266 m 602 575 l 602 575 q 621 555 616 570 q 603 528 620 538 q 570 513 585 517 q 412 476 500 492 q 228 460 324 459 q 58 490 149 462 q 26 506 44 495 q 19 514 20 509 q 17 524 17 519 q 22 535 18 530 q 32 543 26 541 l 35 544 q 59 547 47 547 q 60 547 59 547 q 60 547 60 547 q 135 543 97 547 q 319 547 222 532 q 469 567 395 558 q 553 578 511 572 q 602 575 583 583 z "},">":{"ha":386,"x_min":33,"x_max":402,"o":"m 60 145 q 48 146 60 145 q 35 212 37 147 q 45 288 33 276 q 69 306 57 300 q 102 318 81 313 q 170 352 117 322 q 251 399 222 382 q 241 405 246 402 q 233 410 237 408 q 120 505 152 478 q 115 509 118 507 q 76 545 98 523 q 46 589 54 567 q 68 627 39 612 q 119 627 95 639 q 164 597 142 616 q 174 588 169 592 q 311 488 266 517 q 358 456 346 465 q 369 449 363 453 q 386 435 382 439 q 396 416 391 430 q 395 382 402 398 q 376 354 389 366 q 317 305 347 328 q 309 298 313 302 q 237 242 273 270 q 219 229 228 236 q 117 159 194 208 q 60 145 84 142 z "},"?":{"ha":412,"x_min":-45,"x_max":471,"o":"m 276 100 l 276 100 q 292 59 292 82 q 269 15 290 33 q 224 1 249 -2 q 174 60 176 9 q 192 102 176 85 q 234 118 209 118 q 234 118 234 118 q 276 100 259 117 m 381 570 l 381 570 q 355 550 369 559 q 321 522 338 536 q 248 455 285 491 q 194 359 207 414 q 192 319 190 339 q 209 293 193 304 q 237 287 223 283 q 282 301 260 294 q 283 302 282 302 q 309 311 296 307 q 338 309 324 315 q 349 286 350 296 q 340 267 347 275 q 179 207 275 189 q 149 222 165 210 q 98 304 106 252 q 109 404 90 356 q 175 509 132 467 q 252 579 213 546 q 271 595 262 587 q 299 618 285 607 q 330 644 315 631 q 376 719 363 673 q 340 816 389 779 q 319 828 330 823 q 201 852 260 852 q 150 848 175 852 q 58 802 98 839 q 31 759 39 783 q 35 719 26 739 q 64 692 44 700 q 134 680 96 679 q 145 680 140 680 q 197 675 172 684 l 206 664 q 197 648 205 652 q 24 637 110 597 q -27 688 -9 653 q -39 761 -45 723 q 1 844 -30 810 q 140 922 60 907 q 366 890 256 942 q 465 756 453 848 q 438 637 471 698 q 381 570 417 600 z "},"@":{"ha":805,"x_min":-7,"x_max":779,"o":"m 769 274 l 769 274 q 687 153 751 196 q 526 174 599 100 q 501 206 513 190 q 493 217 497 212 l 490 222 l 484 220 q 458 203 467 214 q 449 193 454 197 q 321 166 393 151 q 243 229 267 178 q 243 348 217 286 q 336 435 273 412 q 387 437 359 442 q 411 402 410 432 q 401 396 407 397 q 389 395 396 395 q 389 395 389 395 q 378 394 383 395 q 317 356 342 388 q 294 286 292 323 q 317 243 297 258 q 360 231 335 228 q 418 269 401 237 q 447 331 435 300 q 458 365 453 348 q 458 366 458 365 q 465 389 461 377 q 500 419 474 415 q 537 380 532 412 q 545 333 541 357 q 554 283 549 308 q 578 227 559 253 q 612 206 591 210 q 650 215 632 203 q 696 276 684 238 q 705 321 704 298 q 659 505 706 434 q 556 598 616 569 q 430 628 495 628 q 311 603 366 627 q 243 553 275 587 q 140 326 154 459 q 172 85 128 210 q 198 29 181 58 q 416 -94 268 -87 q 547 -37 495 -98 l 552 -32 l 548 -26 q 539 -13 543 -19 q 539 -12 539 -13 q 519 20 528 4 q 521 52 510 37 q 551 66 532 68 q 648 -16 621 55 q 644 -74 657 -43 q 605 -128 630 -105 q 449 -197 536 -191 q 420 -198 434 -198 q 106 2 197 -193 q 113 492 -7 261 q 178 585 138 541 q 427 694 275 693 l 428 694 q 661 605 564 694 q 756 454 733 539 q 773 368 768 414 q 769 274 779 322 z "},"A":{"ha":800,"x_min":-27,"x_max":823,"o":"m 819 410 l 819 410 q 814 390 823 402 q 785 368 804 376 l 781 366 q 758 355 770 360 q 711 330 733 348 l 709 328 l 709 325 q 707 319 708 322 q 707 319 707 319 q 705 301 705 311 q 716 218 709 262 q 725 44 727 139 q 711 -11 724 13 q 671 -36 699 -33 q 629 -20 644 -38 q 605 16 617 -7 q 476 207 545 123 l 475 208 q 422 258 456 237 l 421 258 l 420 258 q 415 259 417 259 q 414 260 415 260 q 397 261 407 262 q 315 258 363 259 q 229 258 267 256 q 213 182 221 224 q 199 111 204 141 q 165 -50 189 28 q 151 -60 157 -58 q 139 -58 144 -61 q 123 -36 125 -51 q 120 46 119 3 q 132 177 125 113 q 136 229 134 203 q 138 248 138 239 l 142 273 q 109 290 125 281 q 88 301 93 298 q 39 328 63 313 q -4 365 14 343 q -23 424 -27 393 q 13 477 -18 456 q 87 501 47 500 q 95 501 91 501 q 115 500 104 501 q 132 500 123 500 q 151 500 138 500 l 176 499 l 178 507 q 242 748 203 629 q 303 927 280 867 q 330 989 313 954 q 358 1017 338 1006 q 408 1019 382 1031 q 449 983 433 1008 q 493 903 477 938 q 658 487 591 701 q 675 435 667 460 l 678 429 q 682 424 680 426 q 685 421 684 422 q 685 421 685 421 q 686 420 686 420 l 687 420 q 706 414 696 414 q 722 416 715 414 q 723 416 722 416 q 730 418 726 417 q 743 420 736 419 q 802 423 774 427 q 819 410 814 420 m 159 335 l 159 335 l 174 416 l 167 419 q 145 427 163 421 q 107 437 128 433 q 69 433 85 440 q 53 413 56 427 q 57 387 50 400 q 87 361 67 372 q 126 344 108 350 q 150 337 145 338 l 159 335 m 347 332 l 347 332 l 368 336 l 349 348 q 335 356 348 349 q 304 374 322 364 q 270 390 287 383 l 260 394 l 246 326 l 257 326 q 264 326 258 326 q 303 327 277 326 q 347 332 330 328 m 463 359 l 463 359 q 489 363 476 360 q 522 371 501 366 q 563 381 542 376 l 570 383 l 569 391 q 565 417 567 404 q 561 436 562 430 q 409 850 509 614 q 400 860 406 857 q 400 861 400 860 q 397 863 399 861 l 394 866 l 389 865 q 388 865 389 865 q 387 865 387 865 q 382 864 385 865 q 376 859 378 863 q 312 681 345 802 q 270 476 278 561 l 269 472 l 273 469 q 326 434 296 447 q 355 417 341 427 q 384 397 370 408 q 446 358 412 374 l 448 357 l 451 357 q 463 359 456 359 m 605 191 l 605 191 l 611 193 l 610 199 q 609 215 610 202 q 605 242 607 227 q 600 271 602 258 q 596 288 597 283 q 592 292 594 291 q 588 294 590 294 q 581 293 584 295 q 574 290 577 292 q 564 285 573 289 q 542 277 554 281 q 550 257 546 265 q 555 246 553 248 l 555 246 q 558 242 556 245 q 562 235 559 239 q 581 203 572 215 q 600 191 590 191 q 605 191 602 191 z "},"B":{"ha":926,"x_min":4,"x_max":909,"o":"m 162 -16 l 162 -16 q 128 10 145 -7 q 122 20 125 14 q 121 37 119 27 q 147 60 127 55 q 163 62 155 62 q 167 62 165 62 q 188 61 173 62 q 221 58 203 59 l 233 56 l 231 68 q 222 191 222 126 q 216 300 222 248 q 214 306 215 304 q 211 309 212 308 q 211 309 211 309 q 210 311 211 310 l 209 312 q 189 323 199 321 q 168 325 178 325 q 168 325 168 325 q 161 326 164 326 q 92 346 124 328 q 40 406 52 368 q 48 484 28 444 q 113 549 68 524 q 161 572 136 560 q 180 581 172 577 l 186 584 l 186 589 q 184 625 186 609 q 177 662 182 640 q 163 720 172 683 l 153 754 l 142 744 q 134 735 138 739 q 126 728 130 731 q 77 684 101 706 q 59 666 68 675 q 50 658 55 662 q 26 637 39 646 q 21 635 25 635 q 15 636 18 635 q 10 641 12 637 q 6 648 7 644 q 7 665 4 655 q 37 722 15 696 q 109 800 66 758 q 256 918 170 863 q 589 1017 415 1017 q 590 1017 589 1017 q 722 994 656 1017 q 839 900 802 964 q 861 751 876 836 q 785 591 845 667 q 756 555 770 572 q 744 541 749 548 l 741 538 l 742 534 q 751 512 745 519 q 765 499 758 504 q 769 496 767 497 q 842 422 814 459 q 888 330 879 374 q 865 168 909 244 q 747 47 826 96 q 559 -28 668 -3 q 297 -52 434 -58 q 162 -16 222 -49 m 205 416 l 205 416 l 214 418 l 201 511 l 191 509 q 175 504 188 508 q 146 492 161 500 q 119 473 130 485 q 109 446 108 462 q 119 426 109 434 q 143 416 129 418 q 170 414 157 414 q 193 415 183 414 q 205 416 203 416 m 321 532 l 321 532 l 338 457 l 346 458 q 383 464 350 458 q 464 482 416 469 q 558 517 511 495 l 585 530 l 555 534 q 516 538 551 534 q 430 542 480 542 q 330 534 379 543 l 321 532 m 765 352 l 765 352 q 677 441 734 398 q 660 452 670 447 q 635 456 650 457 l 634 455 l 633 454 q 594 436 614 446 q 505 395 550 414 q 405 359 456 376 q 356 342 381 351 l 351 340 l 351 334 q 349 317 350 325 q 349 317 349 317 q 349 290 348 302 q 347 183 350 252 q 340 56 345 115 l 339 45 l 349 45 q 367 46 358 46 q 378 46 376 46 q 595 96 487 55 q 704 153 654 118 q 760 208 738 178 q 765 352 812 279 m 231 800 l 231 800 q 241 778 236 789 q 241 776 241 777 q 269 705 256 740 q 280 669 275 687 q 299 614 287 640 l 300 612 l 303 610 q 308 608 306 609 q 308 608 308 608 q 317 604 312 605 q 333 603 325 604 q 378 602 355 601 q 621 581 515 607 l 625 580 l 629 582 q 749 720 711 637 q 769 787 765 753 q 697 912 778 878 q 621 931 657 928 q 244 821 417 949 q 243 819 243 820 q 243 819 243 819 q 237 815 240 818 q 232 808 235 812 l 230 804 l 231 800 z "},"C":{"ha":824,"x_min":-3,"x_max":806,"o":"m 744 930 l 744 930 q 776 806 801 880 q 689 693 749 736 q 555 644 630 649 q 526 647 541 642 q 509 663 512 652 q 518 688 507 676 q 546 705 530 699 l 553 708 q 633 753 593 726 q 690 825 673 780 q 669 870 700 857 q 475 879 584 906 q 227 724 326 840 q 142 490 145 625 q 170 306 141 400 q 407 106 224 132 q 604 158 515 92 q 652 194 629 176 q 652 195 652 195 q 680 216 666 205 q 695 228 688 222 q 736 258 715 244 q 769 265 748 264 q 793 253 782 266 q 802 220 806 237 q 790 183 798 199 q 397 -41 635 -66 q 84 182 180 -18 q 33 559 -3 367 q 125 764 56 675 q 425 964 242 910 q 541 983 489 983 q 551 983 546 983 l 552 983 l 553 983 q 685 962 610 987 q 744 930 720 951 z "},"D":{"ha":1373,"x_min":-8,"x_max":1350,"o":"m 869 858 l 869 858 q 1177 646 1073 753 q 1315 450 1280 538 q 1343 312 1350 361 q 1320 202 1341 264 q 1235 82 1298 141 q 1047 -16 1172 24 l 1047 -15 q 811 -45 920 -51 q 635 -20 702 -39 q 623 -75 631 -70 q 603 -87 619 -80 q 567 -93 587 -94 q 531 -70 547 -91 q 516 -27 522 -53 q 507 25 510 -2 q 348 121 411 71 q 253 207 284 171 q 220 248 222 243 q 212 258 218 250 q 200 282 205 267 q 197 315 195 296 q 216 355 200 334 q 335 428 250 395 q 515 478 420 462 q 547 699 524 640 q 564 718 555 718 q 583 707 573 718 q 602 682 592 696 q 606 675 604 678 q 625 602 618 656 q 633 489 632 547 q 738 488 690 492 q 850 470 785 483 q 990 415 939 454 q 1038 323 1041 375 q 999 251 1030 274 q 947 228 968 229 q 928 230 939 227 q 908 235 918 232 q 892 241 899 238 q 886 243 886 243 q 879 261 867 252 q 914 280 890 271 q 928 289 923 285 q 937 296 934 293 q 940 303 939 300 q 942 309 941 307 q 941 312 942 311 q 941 313 941 313 q 833 359 927 342 q 627 376 740 376 q 629 227 627 315 q 633 76 631 140 q 765 61 713 62 q 817 60 817 60 q 856 64 817 60 q 952 80 895 67 q 1068 120 1010 93 q 1166 196 1126 148 q 1211 317 1206 243 q 1152 496 1214 409 q 987 658 1090 583 q 766 787 885 732 q 536 871 648 842 q 289 910 391 907 q 130 902 186 913 q 66 886 74 891 q 61 883 63 884 q 59 880 60 882 q 59 878 59 879 q 61 877 60 878 q 63 876 62 876 q 64 876 64 876 q 65 876 65 876 q 77 873 65 876 q 109 863 88 870 q 119 859 116 861 q 123 853 123 856 q 123 848 124 850 q 120 844 121 846 q 116 841 118 842 q 115 840 115 840 q 42 832 76 827 q -1 855 9 838 q -1 885 -8 870 q 21 919 7 900 q 27 928 24 923 q 42 945 35 939 q 56 954 50 951 q 66 957 62 957 q 70 958 70 958 q 291 996 179 994 q 507 977 404 997 q 692 929 610 957 q 821 880 773 902 q 869 858 869 858 m 505 109 l 505 109 q 513 258 511 204 q 514 356 514 311 q 514 373 514 364 q 347 351 410 365 q 256 323 284 337 q 241 313 246 319 q 235 302 236 308 q 235 292 233 297 q 238 283 236 287 q 242 276 240 279 q 243 274 243 274 q 369 173 302 213 q 505 109 436 132 z "},"E":{"ha":755,"x_min":20,"x_max":747,"o":"m 389 -59 l 389 -59 q 68 136 177 -53 q 45 337 20 219 q 104 490 60 410 q 127 531 115 510 q 141 555 136 545 l 144 559 l 138 567 q 117 600 127 583 q 103 734 85 667 q 327 986 153 916 q 463 1012 390 1012 q 517 1008 490 1012 q 623 968 583 1000 q 656 918 649 947 q 637 846 663 882 q 572 800 614 819 q 449 783 513 775 q 428 789 436 783 q 424 794 425 791 q 423 801 422 798 q 428 805 425 804 q 435 808 431 807 q 488 825 460 819 q 560 849 525 833 q 602 909 608 875 q 554 947 596 936 q 411 948 484 964 q 278 880 338 932 q 190 739 218 829 q 185 675 180 707 q 213 636 190 649 l 217 634 l 220 636 q 233 641 227 639 q 234 642 233 642 q 267 656 250 649 q 480 673 365 700 q 566 608 555 654 q 544 528 575 563 q 433 471 499 484 q 313 471 368 458 q 281 479 297 474 q 254 486 268 482 q 243 490 251 487 q 228 496 236 492 l 220 499 l 216 494 q 165 398 180 446 q 145 307 151 350 q 168 191 136 245 q 446 52 267 32 q 572 90 517 62 q 598 103 585 97 q 599 104 599 103 q 641 124 619 114 q 696 148 669 137 q 735 141 719 155 q 736 139 736 140 q 742 111 747 126 q 726 85 737 96 q 507 -41 624 -9 q 389 -59 440 -60 m 279 579 l 279 579 q 279 579 279 579 q 279 579 279 579 l 283 572 q 283 572 283 572 q 283 572 283 572 l 288 564 q 286 563 287 563 q 285 563 285 563 q 285 563 285 563 q 289 562 286 563 q 295 560 292 561 q 300 558 298 559 q 309 555 307 555 q 338 550 323 551 q 378 547 358 547 q 399 548 389 547 q 408 549 403 548 q 446 552 427 549 q 482 565 465 555 q 499 585 498 574 q 499 592 500 589 q 494 600 498 596 q 455 616 484 610 q 408 621 431 621 q 317 600 361 620 q 310 596 316 599 q 296 588 304 593 q 279 579 288 584 z "},"F":{"ha":686,"x_min":-14,"x_max":899,"o":"m 742 690 l 742 690 q 708 655 726 666 q 691 655 701 652 q 677 668 681 660 q 678 708 672 687 q 696 760 687 734 q 708 794 702 777 q 717 822 711 804 q 709 854 722 841 q 677 863 695 867 q 506 823 605 840 q 321 795 406 806 l 310 794 l 313 783 q 330 741 321 761 q 338 718 336 726 q 351 686 345 701 q 361 661 356 673 q 382 596 373 627 q 396 537 391 563 q 405 490 400 515 q 410 464 407 477 l 410 458 l 417 457 q 433 455 427 456 q 446 453 439 454 q 484 450 465 451 q 530 447 507 450 q 604 433 572 441 q 627 420 616 429 q 646 389 645 406 q 643 377 646 383 q 628 363 640 371 q 479 364 557 357 q 478 364 479 364 q 429 368 452 366 l 420 368 l 419 360 q 417 331 418 353 q 414 270 415 301 q 406 154 413 212 q 378 45 399 96 q 332 -16 362 10 q 259 -39 301 -43 q 189 11 218 -32 q 152 115 163 50 q 146 264 138 191 q 252 420 158 374 l 304 447 l 304 452 q 287 576 304 523 q 229 742 264 663 q 155 796 206 788 q 64 825 102 804 q 12 873 29 844 q 22 960 -14 922 q 82 986 50 986 q 98 985 90 986 q 201 931 154 974 q 238 895 219 914 q 256 876 247 885 l 259 873 l 263 873 q 286 873 275 873 q 287 873 287 873 q 288 873 288 873 q 330 874 310 872 q 588 908 480 889 q 758 983 685 925 q 795 1015 777 999 q 795 1015 795 1015 q 822 1038 808 1027 l 825 1040 q 851 1059 838 1051 q 884 1057 869 1068 l 884 1057 q 896 1041 894 1050 q 897 1025 899 1033 q 888 1000 895 1010 q 820 846 847 924 q 742 690 789 764 m 163 863 l 163 863 l 179 864 l 170 877 q 158 891 168 880 q 135 914 149 903 q 106 930 121 925 q 76 926 91 935 q 67 916 69 921 q 64 907 64 911 q 66 901 64 903 q 102 873 73 884 q 157 863 131 863 q 163 863 160 863 m 314 349 l 314 349 l 307 350 q 247 318 277 355 q 222 250 224 290 q 229 127 216 178 l 230 122 q 245 81 234 101 q 257 68 251 71 q 268 65 263 65 q 270 65 269 65 q 292 89 286 68 q 299 116 296 102 q 309 195 307 155 l 310 200 q 314 341 314 269 l 314 349 z "},"G":{"ha":890,"x_min":-24,"x_max":886,"o":"m 829 950 l 829 950 q 860 837 886 907 q 823 783 848 807 q 664 711 755 719 q 659 713 662 711 q 653 717 656 715 q 650 721 650 719 q 650 730 649 724 q 656 740 650 736 q 701 767 677 754 l 707 771 q 783 829 747 791 q 797 849 791 837 q 804 877 804 861 l 804 880 l 785 902 l 782 903 q 657 899 722 918 q 205 575 366 812 q 125 404 151 496 q 184 180 90 275 q 446 102 291 75 q 498 123 469 106 q 601 233 566 163 q 629 298 615 261 l 634 309 q 653 357 643 331 q 671 403 663 383 l 678 423 l 659 414 q 616 399 630 401 l 613 398 q 382 366 503 367 q 330 369 351 366 q 305 378 318 370 q 289 401 290 386 q 294 417 288 409 q 307 429 299 426 q 365 444 336 438 q 439 458 402 452 q 515 473 477 465 q 727 543 616 494 q 768 559 747 553 q 801 550 785 563 q 817 515 818 535 q 808 479 815 498 q 788 429 799 454 q 781 410 785 419 l 780 408 l 780 406 q 781 395 781 400 q 781 395 781 395 q 785 377 782 385 q 819 248 808 314 q 835 119 830 182 q 844 19 840 68 l 848 -14 q 842 -135 855 -85 q 792 -225 828 -191 q 694 -267 747 -270 q 600 -210 639 -261 q 567 -137 574 -176 q 556 -58 560 -97 l 555 -44 q 554 -3 553 -28 l 554 14 l 542 8 q 491 -7 514 -3 l 484 -9 q 176 38 322 -51 q 62 146 108 79 q 16 422 -24 271 q 62 536 30 474 q 254 772 133 670 q 542 941 385 882 q 681 977 598 962 q 790 968 734 985 q 829 950 811 962 m 665 -21 l 665 -21 q 672 -117 661 -68 q 685 -144 676 -132 l 686 -146 q 703 -157 691 -155 q 707 -157 705 -157 q 726 -151 718 -157 q 749 -115 743 -136 q 757 -26 761 -77 q 750 79 753 26 q 745 144 748 111 q 742 166 745 150 q 735 201 739 182 l 730 227 l 719 203 q 714 193 718 200 q 707 180 711 186 q 703 171 704 173 q 665 -21 669 74 z "},"H":{"ha":869,"x_min":-46,"x_max":833,"o":"m 659 2 l 659 2 q 390 307 559 162 l 387 309 l 384 309 q 383 309 384 309 q 340 303 366 309 q 294 289 315 296 q 289 287 291 288 q 286 279 288 285 q 284 261 285 273 q 284 227 283 248 q 285 171 284 205 q 285 154 285 161 q 286 144 286 146 q 263 -7 282 68 q 250 -33 260 -20 q 229 -48 240 -45 q 210 -35 219 -50 q 195 11 199 -14 q 189 62 191 36 q 187 88 189 76 q 181 231 178 170 q 182 250 182 236 q 182 251 182 250 l 184 278 l 173 276 q 100 281 136 271 q 36 304 64 290 q -5 328 14 313 q -34 368 -24 343 q -24 436 -46 404 q 33 486 -2 467 q 114 510 66 503 q 134 512 121 511 q 160 514 147 513 q 177 513 173 514 q 174 515 176 513 q 173 520 173 517 l 191 519 q 191 519 191 519 q 191 519 191 519 q 191 653 193 583 q 185 778 189 724 q 181 901 182 840 q 181 902 181 901 q 181 930 181 916 q 191 968 180 952 q 215 983 200 983 q 228 981 221 983 q 239 970 235 978 q 254 930 249 952 q 280 758 269 846 q 292 538 295 631 q 294 507 292 523 q 294 507 294 507 q 295 492 294 499 l 296 487 l 428 412 l 431 412 q 489 427 462 416 q 541 452 516 438 q 555 459 549 456 q 608 491 580 471 q 663 540 637 510 l 665 542 l 665 545 q 667 557 667 550 q 672 588 671 571 q 677 673 675 631 q 682 763 679 718 q 713 924 688 850 q 736 971 723 949 q 748 982 740 977 l 750 983 q 770 985 758 989 q 779 979 775 983 q 783 970 783 975 q 785 935 786 953 q 778 872 780 905 q 780 586 770 729 q 783 507 782 546 q 810 134 791 298 q 817 68 813 101 q 829 -41 824 15 q 830 -100 833 -67 q 826 -112 829 -106 q 820 -123 823 -118 q 795 -138 812 -135 q 771 -135 781 -141 q 739 -107 755 -125 q 728 -93 734 -100 q 727 -92 728 -92 q 659 2 690 -47 m 527 363 l 527 363 l 511 353 l 519 345 q 560 302 538 326 q 631 233 601 257 q 655 207 637 227 l 681 179 l 680 202 q 674 301 680 239 q 668 397 669 360 q 667 408 668 401 q 666 422 667 415 q 665 433 665 429 l 663 447 l 651 440 q 587 400 623 422 q 527 363 551 378 m 192 351 l 192 351 l 192 442 l 185 444 q 170 448 183 445 q 138 452 157 450 q 99 451 119 453 q 65 438 79 448 q 47 401 47 425 q 62 363 45 378 q 94 349 75 353 q 132 345 113 345 q 168 347 153 345 q 184 350 182 349 l 192 351 m 346 365 l 346 365 l 354 370 l 348 378 q 341 386 347 379 q 326 400 335 392 q 306 413 316 408 l 293 418 l 293 349 l 303 351 q 312 353 304 351 q 328 357 319 354 q 346 365 338 360 z "},"I":{"ha":555,"x_min":-22,"x_max":575,"o":"m 161 -52 l 161 -52 q 102 -61 132 -59 q 92 -58 96 -62 q 85 -52 87 -55 q 82 -41 82 -48 q 85 -31 82 -35 l 89 -26 q 110 -7 99 -14 q 168 24 139 10 q 206 39 184 31 q 208 40 207 39 q 225 47 216 43 l 232 50 l 231 56 q 224 88 228 75 l 224 89 q 195 430 188 239 q 227 652 200 536 q 246 735 236 694 q 260 789 254 762 q 264 810 262 797 q 269 832 267 824 l 269 842 l 260 842 q 238 844 249 843 q 227 846 232 846 q 74 883 150 854 q 5 921 30 899 q -13 940 -6 930 q -9 965 -22 954 q 26 960 7 970 q 151 920 88 930 q 274 911 206 908 q 277 911 275 911 q 277 911 277 911 q 294 913 283 910 l 297 914 l 299 917 q 315 943 307 929 q 340 983 327 964 q 451 1052 380 1040 q 534 1038 494 1059 q 565 1006 555 1027 q 571 963 575 985 q 524 892 563 922 q 431 851 491 866 q 417 849 425 850 l 416 848 q 360 800 370 840 l 360 799 q 331 591 342 702 q 330 361 320 479 q 332 347 331 354 q 335 311 332 330 q 354 102 353 206 q 354 93 354 100 q 355 78 355 86 l 355 70 l 363 70 q 424 68 384 70 q 488 58 463 66 q 525 39 512 51 q 537 14 536 30 q 533 -1 538 6 q 522 -12 528 -9 l 520 -12 q 480 -22 500 -19 q 374 -24 420 -25 q 161 -52 262 -25 m 378 924 l 378 924 l 374 911 l 389 913 q 433 924 407 916 q 481 944 460 932 q 507 972 503 957 q 504 986 508 979 q 488 1000 500 993 q 437 1004 462 1014 q 405 977 418 995 q 386 942 392 958 q 378 924 379 926 z "},"J":{"ha":753,"x_min":-19,"x_max":741,"o":"m 512 97 l 512 97 q 493 71 502 83 q 260 -60 407 -44 q 63 4 150 -71 q 28 188 -19 81 q 94 264 50 233 q 258 326 167 318 q 275 327 266 327 q 347 321 304 327 q 431 306 391 315 l 441 303 l 442 315 q 449 543 446 420 q 455 742 453 665 q 456 747 456 745 q 456 747 456 747 q 456 768 456 757 l 454 774 l 448 775 q 404 778 427 777 q 365 780 383 778 q 338 782 351 781 q 290 787 313 783 q 216 804 250 794 q 167 821 191 812 q 149 827 158 824 q 143 839 143 834 q 153 853 144 845 q 162 854 157 854 q 191 856 176 857 q 273 847 225 854 q 428 845 340 838 q 460 851 442 846 l 465 852 l 466 857 q 473 885 469 871 q 481 920 477 903 q 486 933 484 926 q 486 933 486 933 q 503 983 493 959 q 606 1040 538 1048 q 665 1010 640 1034 q 696 953 690 986 q 667 856 707 895 q 627 824 648 838 q 608 812 619 819 q 568 746 570 791 q 568 665 568 708 q 569 486 570 570 q 566 337 568 411 q 564 265 566 301 q 585 212 564 234 q 595 201 590 206 q 602 195 599 199 q 707 77 653 149 q 734 32 723 54 q 740 5 741 19 q 732 -14 739 -8 q 711 -21 724 -21 q 686 -12 698 -20 q 652 16 667 1 q 614 51 633 33 q 573 88 594 70 q 552 105 564 96 q 537 117 545 110 l 530 122 l 525 115 q 512 97 517 104 m 600 988 l 600 988 q 571 945 580 978 q 565 888 562 913 l 566 877 l 576 880 q 586 884 577 880 q 606 893 595 887 q 627 909 617 900 q 642 931 637 918 q 635 970 649 951 q 615 988 625 985 q 600 988 606 991 m 416 191 l 416 191 l 417 197 l 411 200 q 241 229 322 241 q 145 194 181 221 q 104 145 116 173 q 100 109 96 127 q 118 79 104 92 q 218 41 164 41 q 245 43 231 41 q 408 165 362 64 l 410 168 q 416 191 414 176 z "},"K":{"ha":824,"x_min":-25,"x_max":846,"o":"m 347 380 l 347 380 q 279 362 310 368 l 272 361 l 272 353 q 270 210 273 289 q 260 74 267 131 q 248 12 256 42 q 245 -1 247 5 q 238 -18 243 -9 l 237 -20 q 225 -30 233 -27 q 212 -33 218 -33 q 199 -30 205 -33 q 188 -20 192 -27 q 173 20 177 -1 l 172 33 q 159 187 158 109 q 160 294 162 248 q 159 309 159 303 q 160 321 159 315 q 161 347 161 330 l 161 353 l 154 355 q 119 363 139 359 q 80 372 98 368 q 11 411 41 382 q -25 490 -24 445 q 11 570 -24 535 q 79 610 41 598 q 132 624 103 616 q 157 631 146 628 l 164 633 l 163 640 q 163 661 163 650 q 163 673 163 667 l 163 684 q 158 914 160 798 q 161 951 158 935 q 167 961 163 958 q 176 966 171 965 q 201 960 190 971 q 216 939 212 950 q 233 873 227 905 q 253 716 243 794 q 260 664 256 690 q 310 603 267 618 q 329 598 319 600 q 374 583 352 592 q 437 555 406 569 l 467 541 l 471 543 q 478 545 474 544 q 478 545 478 545 q 494 551 487 547 q 668 683 591 606 q 745 802 721 737 q 757 899 762 850 q 740 935 754 920 q 707 955 726 951 q 597 947 648 967 q 557 931 576 940 q 526 918 542 924 q 516 916 522 916 q 507 915 511 915 q 500 917 505 915 q 497 918 498 917 q 496 920 496 919 q 493 925 494 922 q 491 929 491 928 q 498 951 492 945 q 545 989 521 974 q 699 1030 620 1036 q 762 1013 731 1029 q 830 932 812 987 q 837 829 846 883 q 758 650 819 729 q 621 519 707 585 q 603 507 612 513 q 568 479 583 494 l 567 477 l 566 475 q 567 452 563 460 q 576 437 571 443 l 577 435 q 716 214 652 336 q 772 33 762 126 q 764 -56 777 -15 q 736 -95 755 -81 q 698 -103 718 -107 q 669 -81 679 -98 q 658 -55 663 -70 q 641 13 650 -25 q 592 154 623 97 q 495 331 542 249 q 472 368 486 349 q 438 401 459 387 l 435 402 l 433 402 q 347 380 394 397 m 162 432 l 162 432 l 165 554 l 157 555 q 139 556 155 555 q 102 552 123 556 q 65 536 81 549 q 47 500 49 522 q 60 463 45 479 q 96 442 75 449 q 134 434 117 435 q 153 432 151 432 l 162 432 m 269 448 l 269 448 l 278 450 q 294 453 279 450 q 329 461 309 456 q 368 475 349 467 l 379 480 l 370 490 q 355 501 368 491 q 321 522 342 511 q 273 538 300 533 l 262 540 l 269 448 z "},"L":{"ha":783,"x_min":16,"x_max":825,"o":"m 107 -9 l 107 -9 q 37 38 60 -1 q 33 121 16 77 q 130 214 59 186 q 179 228 153 222 q 202 233 191 230 q 221 237 212 235 l 232 240 l 234 243 q 260 310 256 275 q 262 320 261 315 q 291 587 291 459 q 291 621 292 602 l 290 632 l 280 629 q 250 622 264 626 q 214 613 231 616 l 203 611 q 111 593 157 601 q 58 601 81 587 q 53 606 55 603 q 50 612 50 609 q 50 616 50 614 q 52 620 51 618 q 53 622 52 622 q 107 645 80 635 q 164 665 136 656 q 237 691 200 678 q 284 713 260 701 l 288 715 l 289 720 q 293 754 292 736 l 293 756 q 296 812 295 785 q 301 892 298 852 q 316 965 304 930 q 344 1016 323 988 q 394 1052 361 1040 q 463 1051 427 1063 q 524 1013 500 1037 q 550 848 593 940 q 492 772 530 808 q 440 726 468 750 q 412 701 427 714 l 410 699 l 410 695 q 408 610 407 652 q 408 534 410 572 q 395 382 401 448 q 379 307 391 345 q 362 221 366 262 l 362 216 l 366 214 q 397 200 382 203 q 408 197 404 199 q 525 153 467 175 q 529 152 527 153 q 587 131 558 142 q 779 41 682 96 q 813 16 798 31 q 821 -14 825 3 q 799 -37 816 -32 q 766 -39 779 -42 q 664 -11 713 -28 q 486 56 574 22 q 485 57 486 57 q 437 75 460 66 q 396 92 416 83 q 396 92 396 92 q 351 109 374 101 q 327 117 334 116 l 322 118 l 319 115 q 296 87 307 102 q 283 71 290 79 q 218 12 250 32 q 107 -9 169 -20 m 397 913 l 397 913 q 404 821 393 875 l 406 806 l 418 815 q 454 849 435 829 q 485 897 475 874 q 453 979 501 947 q 413 968 430 989 q 398 918 399 944 l 397 913 m 107 134 l 107 134 q 99 87 92 116 q 110 69 103 75 q 121 63 116 64 q 127 62 124 62 q 165 80 144 64 q 201 115 185 96 q 222 142 217 134 l 231 154 l 216 156 q 188 158 209 157 q 144 154 168 159 q 107 134 121 149 z "},"M":{"ha":1053,"x_min":54,"x_max":1022,"o":"m 873 900 l 873 900 q 997 522 972 732 q 969 87 1022 311 q 926 -29 954 20 q 893 -65 911 -55 q 854 -71 873 -77 q 828 -42 836 -63 q 825 -8 823 -27 q 835 82 829 39 q 859 341 854 211 q 843 598 865 471 q 761 844 822 726 q 712 901 742 879 q 679 912 696 912 q 648 901 663 912 q 597 853 618 880 q 564 803 577 827 l 561 799 l 563 795 q 578 765 570 780 q 578 765 578 765 q 585 750 582 757 q 669 470 654 612 q 661 329 675 402 q 616 230 648 266 q 526 180 576 184 q 431 218 476 178 q 376 319 391 257 q 363 528 350 406 q 406 696 376 621 q 417 726 411 711 q 427 754 422 740 l 429 756 l 428 759 q 406 802 420 784 q 375 838 392 821 q 307 876 348 869 l 304 876 l 303 876 q 250 838 271 867 q 188 730 216 798 q 140 384 118 548 q 149 318 144 351 q 157 256 153 287 q 201 92 168 177 q 208 75 204 83 q 222 35 216 56 q 227 -13 229 14 q 217 -26 224 -22 q 198 -27 208 -31 q 174 -7 183 -22 q 93 178 115 87 q 54 485 54 340 q 140 840 56 661 q 181 907 157 875 l 184 909 q 218 946 200 932 q 374 972 290 1002 q 444 930 412 957 l 449 926 q 471 909 458 919 q 490 893 481 900 l 498 888 l 503 896 q 516 911 508 903 q 532 930 525 920 q 551 951 541 942 q 562 961 557 956 q 563 962 562 961 q 609 998 584 983 q 760 1005 683 1039 q 829 956 795 991 q 873 900 851 933 m 541 308 l 541 308 q 511 605 571 459 q 507 613 511 606 q 506 614 507 614 q 496 634 502 623 l 486 654 l 479 633 q 449 455 450 530 q 451 385 448 420 q 470 315 455 349 q 486 290 475 302 q 512 278 498 278 q 516 278 514 278 q 541 308 535 281 z "},"N":{"ha":853,"x_min":34,"x_max":798,"o":"m 88 235 l 88 235 q 102 313 96 275 q 124 438 112 376 q 137 850 166 650 q 132 947 131 901 q 142 988 132 966 q 176 1013 152 1009 q 181 1013 178 1013 q 215 997 201 1013 q 233 966 227 983 q 251 909 243 939 q 532 283 332 619 q 564 234 544 263 q 606 182 583 205 q 647 155 628 159 q 668 163 660 155 q 676 180 674 170 q 681 398 692 269 q 668 500 677 450 q 658 551 663 526 q 652 570 656 560 q 646 600 646 587 l 646 602 q 607 726 628 665 q 477 962 562 860 q 444 1011 462 981 q 444 1038 436 1024 q 475 1052 453 1054 q 507 1042 495 1049 q 566 997 542 1019 q 678 840 640 929 q 793 349 789 589 l 793 349 q 777 85 798 205 q 761 36 772 61 q 728 -3 749 11 q 663 -2 702 -17 q 638 11 652 3 q 515 101 576 48 q 411 229 454 153 q 290 466 345 345 l 287 472 q 274 500 282 482 q 258 538 267 517 l 249 562 l 241 537 q 230 495 235 514 q 224 469 225 476 q 208 386 216 428 q 168 186 189 286 q 138 77 156 132 q 89 -13 119 21 q 64 -32 79 -26 q 46 -30 55 -35 q 35 -11 37 -24 q 52 71 34 29 q 64 113 60 92 q 87 228 77 171 l 88 235 z "},"O":{"ha":890,"x_min":18,"x_max":858,"o":"m 828 327 l 828 327 q 782 191 811 257 q 698 74 753 125 q 508 -15 616 1 q 292 13 401 -31 q 85 185 157 69 q 21 466 18 294 q 73 701 23 589 q 221 884 128 829 q 252 895 238 895 q 291 871 275 895 q 283 861 288 865 q 171 698 208 800 q 153 331 95 493 q 378 124 204 186 q 493 119 427 106 q 639 196 580 134 q 691 283 673 234 q 692 284 691 283 q 699 301 695 292 q 706 322 702 307 q 715 353 711 337 q 722 396 723 385 q 715 410 722 408 q 656 424 685 423 q 625 429 640 425 q 529 464 576 441 q 443 527 481 486 q 364 852 316 665 q 419 937 378 906 q 514 966 459 968 q 683 902 613 961 q 793 752 752 842 q 844 562 833 661 q 828 327 858 442 m 617 575 l 617 575 q 728 563 665 563 l 734 563 l 736 570 q 736 593 739 579 q 723 674 732 633 q 693 754 714 715 q 537 879 640 854 q 485 871 507 886 q 459 827 464 857 q 564 595 438 674 q 617 575 589 581 z "},"P":{"ha":875,"x_min":-41,"x_max":943,"o":"m 907 515 l 907 515 q 824 414 873 450 q 730 361 774 377 q 521 323 630 322 q 502 323 517 323 q 470 323 488 323 l 462 323 l 461 314 q 438 -12 454 173 q 426 -34 437 -25 q 394 -42 412 -45 q 355 -20 370 -39 q 334 35 334 5 q 334 123 332 77 q 338 201 336 163 q 338 202 338 201 q 340 277 338 238 q 341 299 340 283 q 340 330 341 315 l 340 336 l 315 347 q 272 365 293 356 q 203 407 230 383 q 157 522 153 454 q 223 627 164 589 q 260 646 241 638 q 269 650 265 648 q 299 661 283 655 q 300 661 299 661 q 319 669 309 665 l 323 670 l 324 675 q 325 704 326 690 q 324 718 324 711 q 336 817 323 765 q 351 846 339 831 q 359 852 355 851 q 368 854 364 854 q 370 854 369 854 q 383 848 377 852 q 391 839 389 844 q 397 804 395 822 q 402 764 400 785 q 409 709 406 737 q 412 692 410 702 q 412 691 412 692 l 414 680 l 420 679 q 473 671 446 675 q 503 668 488 669 q 563 651 537 663 q 600 629 584 642 q 612 548 638 593 q 583 517 602 533 q 529 488 562 499 q 517 487 525 487 q 503 492 509 486 q 502 493 503 492 q 499 497 500 495 q 498 502 498 499 q 500 507 498 505 q 520 528 510 517 l 526 534 q 531 538 528 536 q 547 555 539 546 q 551 589 562 578 q 541 596 546 594 q 497 610 520 605 q 450 610 475 616 q 440 607 446 610 q 431 593 433 602 q 429 577 428 585 q 442 478 435 529 q 450 425 446 451 l 451 419 l 456 417 q 484 413 472 412 l 486 412 q 670 435 582 408 q 808 531 755 460 q 833 663 849 588 q 683 859 802 787 q 532 918 623 895 q 53 926 300 975 l 48 926 q 1 920 24 920 q -28 930 -16 921 q -36 936 -33 932 q -40 946 -39 940 q -32 968 -41 956 q 1 991 -18 983 q 43 1005 21 1000 l 54 1008 q 144 1027 98 1020 q 593 991 372 1057 q 718 941 665 970 q 849 829 793 899 q 924 677 905 760 q 907 515 943 595 m 333 426 l 333 426 l 343 425 l 342 435 q 337 497 341 459 q 330 567 334 535 q 327 602 327 598 l 326 611 l 317 610 q 262 588 291 608 q 235 523 233 568 q 254 471 239 490 q 287 441 269 451 q 319 429 305 432 q 333 426 332 426 z "},"Q":{"ha":893,"x_min":15,"x_max":1067,"o":"m 243 970 l 243 970 q 250 970 246 971 q 257 965 253 970 q 266 950 261 961 q 254 930 263 939 l 252 929 q 157 754 190 863 q 130 465 115 612 q 216 210 143 328 q 386 94 279 106 q 405 94 394 93 q 429 108 419 96 q 435 133 437 119 q 433 140 435 137 q 408 191 421 166 q 380 248 394 219 q 288 684 288 454 q 302 802 288 745 q 342 893 315 854 q 530 977 416 997 q 795 773 701 947 q 858 535 848 677 q 855 467 861 507 q 699 124 827 258 q 692 113 694 118 l 690 111 q 690 111 690 111 q 690 111 690 111 q 678 94 686 108 l 675 88 l 680 84 q 709 58 693 70 q 836 -18 766 14 q 974 -87 911 -55 q 1047 -147 1023 -113 q 1063 -182 1058 -163 q 1055 -218 1067 -201 q 1030 -233 1044 -232 q 993 -230 1013 -234 q 862 -193 922 -211 q 570 -31 686 -142 q 513 -9 545 -9 q 496 -10 505 -9 q 482 -14 489 -12 q 465 -18 473 -16 q 134 137 260 -52 q 53 332 81 216 q 56 665 15 487 q 111 827 77 759 q 198 946 148 903 q 243 970 221 966 m 401 654 l 401 654 q 553 224 425 422 q 569 205 559 216 q 569 205 569 205 q 581 192 574 199 l 586 185 l 593 191 q 606 199 600 196 q 624 215 616 207 q 744 462 712 312 q 750 560 755 512 q 712 713 743 645 q 551 869 660 829 q 509 879 530 877 q 416 822 446 882 q 397 743 397 781 l 398 728 q 401 654 397 692 z "},"R":{"ha":997,"x_min":-23,"x_max":975,"o":"m 561 227 l 561 227 q 412 249 479 249 q 400 249 406 249 q 383 247 393 249 q 364 233 374 244 l 363 232 l 362 230 q 361 227 361 229 q 361 227 361 227 q 357 209 358 219 q 357 143 357 176 q 357 72 358 108 q 353 21 358 47 q 344 1 351 11 q 320 -14 337 -9 q 275 3 293 -20 q 242 72 250 35 q 234 138 233 109 q 234 146 234 140 q 235 161 235 153 q 235 161 235 161 q 238 230 238 207 q 236 261 239 253 q 228 271 233 269 q 195 280 214 275 q 148 294 166 288 q 125 308 134 298 q 118 328 117 317 q 147 355 121 349 q 182 364 159 359 q 229 374 205 370 l 236 376 l 236 420 q 236 493 236 457 q 235 555 236 530 q 235 606 235 581 q 234 700 234 652 q 240 747 235 724 l 241 751 q 242 754 241 752 q 246 759 243 757 q 256 764 249 762 q 264 764 260 765 q 273 761 269 763 q 279 757 277 759 l 282 749 q 300 702 293 726 q 334 508 324 601 q 345 417 338 464 q 347 412 346 414 q 361 393 351 399 q 384 387 372 386 q 388 387 386 387 q 578 446 485 408 q 753 555 674 486 q 795 596 773 572 q 834 652 817 621 q 832 755 861 703 q 729 850 795 819 q 578 889 658 884 q 243 857 399 901 q 79 772 153 831 l 77 772 q 63 758 70 766 q 58 737 56 749 q 70 722 60 726 q 87 717 79 718 q 88 716 88 716 q 94 715 91 716 q 105 712 98 715 q 119 706 113 710 q 129 695 126 701 q 129 680 132 687 q 123 675 127 676 q 24 675 68 659 q -13 710 -3 686 q -11 763 -23 736 q 39 825 3 795 q 193 916 108 883 q 384 960 275 947 q 603 968 493 973 q 752 935 675 964 q 888 842 832 905 q 924 793 909 817 q 933 612 975 705 q 865 515 910 563 q 680 376 791 434 q 661 368 673 373 q 617 349 639 360 l 597 336 l 620 332 q 868 181 755 304 q 966 -33 943 100 q 966 -73 968 -52 l 966 -76 q 961 -95 965 -85 q 935 -117 954 -111 q 904 -111 917 -121 q 877 -79 887 -96 q 836 -3 856 -41 l 827 15 q 561 227 743 177 z "},"S":{"ha":850,"x_min":28,"x_max":846,"o":"m 422 -206 l 422 -206 q 402 -196 412 -205 q 389 -172 393 -186 q 386 -112 382 -143 l 387 -107 q 390 -79 387 -94 q 396 -42 392 -64 l 398 -34 l 390 -32 q 368 -29 382 -30 q 353 -27 359 -28 q 317 -22 335 -24 q 256 -12 286 -18 q 83 97 151 14 q 37 232 33 157 q 109 359 41 313 q 229 395 163 395 q 249 394 239 395 q 398 351 330 387 q 526 203 490 302 q 533 177 529 193 q 543 145 538 161 q 549 122 546 132 l 552 112 l 562 117 q 677 228 651 163 q 694 349 703 292 q 615 464 687 430 q 503 494 567 486 q 405 507 453 501 l 389 509 q 248 538 322 515 q 127 608 175 562 q 87 835 28 707 q 180 935 116 897 q 277 972 224 962 q 590 966 441 1006 q 671 930 637 954 q 713 884 700 911 q 709 775 740 833 q 644 708 687 732 q 460 665 558 658 q 444 677 449 666 q 443 685 442 680 q 445 694 444 690 q 450 700 447 699 l 450 700 q 496 721 473 713 l 505 724 q 590 758 549 736 q 627 786 609 768 q 651 833 644 803 l 652 833 l 652 835 q 623 879 650 864 q 566 903 596 895 q 282 903 422 941 q 211 869 243 892 q 156 791 169 839 q 180 690 140 734 q 252 642 207 661 q 366 614 300 623 q 437 605 401 609 q 438 605 437 605 q 486 599 463 602 q 619 572 560 591 q 688 543 659 558 q 799 395 776 493 q 683 57 846 189 q 593 5 644 26 q 553 -10 574 -2 l 526 -20 l 517 -43 q 503 -84 510 -64 q 494 -108 498 -96 q 477 -155 486 -132 q 460 -186 470 -173 q 422 -206 444 -208 m 357 81 l 357 81 q 412 87 384 81 l 419 89 l 419 96 q 357 246 419 192 q 218 296 296 296 q 179 291 201 296 q 139 260 153 283 q 131 209 125 237 q 158 159 137 183 q 258 96 198 112 q 305 85 280 90 q 357 81 330 81 z "},"T":{"ha":635,"x_min":-35,"x_max":887,"o":"m 867 936 l 867 936 q 802 899 837 916 q 623 843 714 860 q 545 829 584 836 l 508 823 l 507 822 q 416 714 450 790 q 383 619 396 669 q 351 315 347 476 q 351 311 351 313 q 380 271 355 283 q 399 263 390 266 q 415 256 408 260 q 523 189 479 226 q 597 58 583 138 q 582 -47 607 2 q 505 -121 556 -96 q 372 -121 439 -152 q 287 -43 321 -98 q 239 89 252 14 q 227 323 220 212 q 254 533 233 435 q 301 676 270 603 q 366 804 332 750 l 374 817 l 360 818 q 307 825 335 821 q 214 836 256 830 q 43 888 133 846 q -1 907 22 897 q -10 910 -5 908 q -23 915 -17 912 q -33 921 -29 918 q -35 927 -35 924 q -35 932 -35 930 q -22 958 -33 948 q -1 966 -12 966 q 3 965 1 966 q 76 950 37 962 q 212 922 143 930 q 503 924 343 905 q 755 979 620 938 q 831 998 793 990 q 875 994 857 1004 q 886 968 887 980 q 881 951 885 960 q 867 936 877 943 m 359 156 l 359 156 q 387 28 353 98 q 421 -7 399 6 q 441 -13 431 -13 q 473 3 460 -13 q 486 34 482 14 q 474 90 490 65 q 381 171 437 150 q 376 172 378 172 q 371 171 373 172 q 371 171 371 171 q 370 171 370 171 l 366 170 l 363 166 q 362 165 363 165 q 362 165 362 165 q 360 161 361 163 q 359 156 359 159 l 359 156 z "},"U":{"ha":833,"x_min":31,"x_max":772,"o":"m 389 -39 l 389 -39 q 276 -46 340 -58 q 159 24 212 -34 q 96 130 122 67 q 52 321 60 217 q 131 825 31 589 q 187 926 151 878 q 220 954 202 943 q 234 954 226 958 q 250 939 246 949 q 253 924 252 933 q 250 907 254 915 q 202 804 219 859 q 172 688 184 749 q 151 312 128 496 q 197 149 162 218 q 237 88 216 113 q 366 59 290 29 q 425 100 398 73 q 603 371 543 213 q 621 475 621 424 q 653 761 629 607 q 681 918 663 826 q 697 958 686 939 q 735 976 711 979 q 758 964 747 974 q 768 943 768 954 q 768 864 771 900 q 758 734 764 799 q 751 665 755 700 q 739 320 735 477 q 752 130 743 224 q 760 41 756 85 l 760 36 q 770 -111 766 -37 q 767 -157 772 -133 q 755 -181 763 -170 q 734 -193 747 -191 q 713 -189 722 -195 q 691 -162 696 -175 q 667 -96 677 -131 q 643 16 656 -53 q 621 144 629 84 l 618 165 l 605 149 q 600 141 602 144 q 591 130 595 135 q 517 51 557 92 q 498 32 507 41 q 389 -39 454 -12 z "},"V":{"ha":844,"x_min":20,"x_max":991,"o":"m 163 919 l 163 919 q 163 916 163 918 q 164 913 163 915 q 163 911 164 911 q 136 652 114 802 q 254 353 159 495 q 453 119 325 246 q 456 117 454 119 q 491 117 473 106 q 505 129 498 121 l 509 135 q 559 203 536 168 q 707 637 681 410 q 708 653 707 642 q 708 676 708 665 l 708 686 l 699 686 q 646 688 671 686 q 631 689 637 689 q 553 708 593 691 q 473 782 498 732 q 462 892 448 832 q 542 986 477 959 q 649 995 597 1008 q 736 936 701 982 q 767 885 754 910 q 783 848 774 869 q 790 827 787 837 l 793 821 l 800 822 q 832 826 819 824 q 857 831 845 829 q 886 838 871 834 q 931 846 909 842 q 964 846 947 848 l 967 845 q 981 839 976 844 q 987 828 985 833 q 988 812 991 819 q 981 802 985 806 q 955 779 968 787 q 891 748 924 762 l 887 746 q 847 728 869 738 q 803 664 806 709 l 802 663 q 663 181 791 416 q 597 81 633 129 l 597 80 q 534 19 571 44 q 415 15 473 -22 q 379 41 394 28 q 159 290 238 170 q 47 560 77 417 q 57 828 20 697 q 82 888 66 859 l 83 890 q 114 927 93 912 q 138 937 127 937 q 143 936 140 937 q 163 919 155 935 m 699 814 l 699 814 q 684 882 701 844 q 616 927 667 920 q 545 893 570 929 q 545 841 530 866 q 560 824 549 833 q 594 809 572 816 q 652 803 616 803 q 690 805 669 803 l 698 806 l 699 814 z "},"W":{"ha":1109,"x_min":16,"x_max":1069,"o":"m 149 798 l 149 798 q 229 873 186 850 q 275 886 252 887 q 290 881 283 886 q 301 871 298 877 q 299 855 305 863 q 285 846 294 849 q 275 841 279 844 q 243 817 258 832 q 199 754 219 793 q 127 342 100 558 q 169 224 136 279 q 257 146 201 169 q 337 140 296 130 q 372 172 364 146 l 373 175 l 371 178 q 364 192 368 185 q 349 224 356 207 q 298 449 302 324 q 311 553 296 494 q 349 631 322 597 q 504 665 414 702 q 583 592 553 642 q 623 399 631 507 q 579 234 616 309 q 568 213 574 223 q 551 186 562 203 l 547 180 l 551 176 q 563 165 555 171 q 575 156 570 159 q 673 124 620 127 q 779 157 735 120 q 823 201 805 179 q 943 466 922 321 q 932 635 955 541 q 842 823 906 743 q 711 963 781 901 q 667 996 690 981 q 648 1008 657 1002 q 636 1015 642 1012 q 617 1029 626 1022 q 610 1050 608 1036 q 625 1070 612 1065 q 644 1076 633 1074 q 713 1066 682 1081 q 771 1032 742 1053 q 934 876 866 963 q 1065 522 1051 725 q 1050 380 1069 460 q 930 132 1019 243 q 880 77 906 102 q 585 16 751 -41 q 531 40 557 26 q 509 51 520 45 q 481 64 496 57 q 469 71 475 67 l 465 73 l 444 62 q 412 45 428 54 q 256 28 336 6 q 78 164 140 59 q 24 356 30 245 q 76 659 16 498 q 149 798 107 741 m 420 566 l 420 566 q 402 488 401 530 q 458 275 406 353 l 465 263 l 473 275 q 481 289 477 282 q 486 299 484 296 q 486 299 486 299 q 487 301 486 300 q 520 452 521 366 q 503 537 520 496 q 474 576 491 559 q 448 584 465 585 q 420 566 429 581 z "},"X":{"ha":935,"x_min":-4,"x_max":957,"o":"m 955 9 l 955 9 q 926 -19 949 -14 q 884 -22 905 -23 q 766 -1 830 -21 q 594 132 656 33 q 533 269 560 186 q 505 360 524 299 q 505 363 505 361 q 487 423 495 395 l 481 442 l 471 425 q 411 330 444 382 q 340 216 375 272 q 281 121 305 160 q 207 16 240 60 q 157 -24 188 -11 q 119 -15 136 -32 q 112 -5 115 -12 q 112 11 109 2 q 132 51 120 31 l 135 58 q 425 531 248 273 q 427 533 425 532 q 436 585 441 558 q 435 589 435 587 q 371 745 407 678 q 321 823 346 793 q 197 893 269 887 q 186 894 191 894 q 62 841 120 894 q 51 830 56 836 q 51 830 51 830 q 35 815 43 822 q 23 812 31 812 q 10 816 16 812 q 0 825 5 819 q -3 839 -4 831 q 8 871 -1 858 q 173 977 69 958 q 351 934 271 991 q 432 848 401 897 q 476 772 455 810 q 492 743 484 758 q 511 701 501 727 q 518 684 515 692 l 522 675 l 530 679 q 551 701 539 684 q 551 702 551 702 q 555 706 553 705 q 600 768 583 741 q 619 797 610 783 q 737 998 686 892 q 753 1019 743 1009 q 773 1023 761 1026 q 791 1011 787 1021 q 798 985 797 997 q 787 922 800 951 q 753 846 772 885 q 622 633 699 741 q 589 587 606 610 q 588 585 589 585 q 574 564 581 574 l 572 560 l 572 557 q 575 545 574 551 q 581 519 577 532 q 594 478 588 498 q 650 309 621 393 q 693 210 665 264 q 808 105 730 137 q 839 93 823 99 q 840 93 840 93 q 900 68 869 81 q 943 41 922 58 q 952 30 947 38 q 955 9 957 22 z "},"Y":{"ha":633,"x_min":7,"x_max":748,"o":"m 268 166 l 268 166 q 269 252 269 209 q 269 271 269 262 q 269 272 269 272 l 269 279 l 268 281 q 250 300 260 295 q 230 308 239 306 q 230 309 230 308 q 222 311 226 309 q 48 517 83 365 q 83 869 7 700 q 134 951 105 918 q 178 984 151 974 q 189 985 183 985 q 203 983 195 985 q 209 979 207 982 q 212 968 213 974 q 205 958 210 962 q 166 907 181 935 q 141 850 151 879 q 120 582 98 730 q 162 472 130 517 q 208 428 179 448 q 271 402 237 408 l 280 401 l 281 410 q 283 421 282 416 q 286 434 285 427 q 292 473 290 454 q 304 547 298 510 q 363 766 326 670 q 436 905 394 850 q 517 980 473 954 q 600 1000 557 1003 q 680 958 646 996 q 726 867 710 922 q 722 690 748 789 q 605 466 689 569 q 419 317 521 362 q 399 308 408 313 q 399 308 399 308 q 393 304 396 306 l 391 303 l 390 301 q 377 272 380 287 q 374 243 374 257 q 374 242 374 243 q 373 237 373 239 q 355 -22 363 104 q 351 -95 353 -58 q 350 -97 351 -96 q 345 -182 348 -139 q 326 -222 343 -208 q 313 -226 319 -227 q 298 -216 305 -224 q 288 -200 292 -209 q 271 -129 274 -168 q 265 -23 264 -75 q 268 166 266 73 m 391 437 l 391 437 l 389 420 l 404 427 q 514 513 467 458 q 589 632 560 568 q 630 753 618 696 q 634 790 634 776 q 634 791 634 791 q 635 795 635 793 l 635 796 q 618 878 635 844 q 587 905 608 901 q 549 892 566 909 q 503 839 522 865 q 452 726 468 781 q 397 486 414 613 q 395 471 396 480 q 391 437 394 456 z "},"Z":{"ha":921,"x_min":9,"x_max":938,"o":"m 923 966 l 923 966 q 919 907 938 947 q 824 830 871 867 q 693 722 758 778 q 570 602 628 665 l 570 602 q 550 582 562 593 q 528 561 538 570 q 517 551 518 552 q 517 551 517 551 l 503 538 l 521 535 q 600 528 556 530 q 734 507 677 525 q 756 477 756 497 q 736 447 756 457 q 645 430 693 433 q 549 429 597 427 q 419 424 482 431 l 416 423 l 413 420 q 405 410 413 420 q 388 387 397 400 q 370 363 378 374 q 312 286 342 323 q 247 198 278 243 q 195 103 216 153 l 193 96 l 199 92 q 243 88 221 81 q 370 98 307 102 q 489 81 433 93 q 512 77 500 79 q 599 61 555 67 q 688 60 643 54 q 754 82 734 67 q 777 113 773 98 q 749 183 786 149 q 689 214 724 205 q 616 208 653 223 l 604 203 l 613 193 q 663 173 635 176 q 703 157 686 170 l 704 157 q 709 149 708 153 q 709 143 710 145 q 700 130 707 133 q 634 125 670 122 q 571 148 597 129 q 544 201 545 168 q 583 260 545 241 q 717 269 644 287 q 836 196 789 250 q 834 33 897 118 q 733 -30 787 -15 q 616 -39 678 -44 q 487 -20 555 -33 q 355 -1 423 -8 q 216 -5 286 5 q 77 -56 146 -16 q 61 -66 68 -61 q 61 -66 61 -66 q 26 -77 39 -81 q 14 -61 16 -73 q 10 -16 9 -38 q 22 24 10 5 l 22 25 q 235 370 127 208 l 243 383 l 227 384 q 226 384 227 384 q 194 377 209 384 q 163 362 178 370 q 111 343 137 346 q 100 353 103 345 q 98 369 97 360 q 103 385 99 378 q 209 470 146 441 q 342 519 273 499 l 353 522 l 355 524 q 403 578 379 551 q 510 697 456 640 q 626 806 564 754 q 637 815 630 809 q 650 827 644 821 q 659 834 656 833 q 659 834 659 834 l 675 849 l 652 850 q 575 850 615 850 q 436 851 507 850 q 299 862 364 853 q 217 865 254 867 q 135 853 180 864 q 116 855 123 850 q 105 867 109 860 q 102 882 101 873 q 111 898 103 890 l 112 899 q 200 937 152 929 q 299 944 249 944 q 333 945 317 944 q 546 945 431 942 q 776 972 661 949 q 923 966 893 998 z "},"[":{"ha":625,"x_min":68,"x_max":557,"o":"m 509 -178 l 509 -178 q 476 -188 490 -187 q 416 -187 447 -190 q 250 -174 337 -181 q 163 -178 213 -169 q 108 -186 136 -184 q 88 -189 98 -188 q 76 -183 80 -187 q 71 -174 73 -179 q 75 -153 68 -165 q 82 -142 78 -147 q 87 -134 85 -138 q 96 -120 92 -127 l 102 -112 l 106 -80 q 117 -14 111 -47 q 172 246 138 112 q 246 629 219 433 q 260 781 256 703 q 244 958 266 865 q 233 995 241 976 l 231 999 l 226 1000 q 195 1004 211 1002 q 160 1009 176 1006 q 96 1040 121 1017 q 71 1091 73 1061 q 87 1145 68 1120 q 143 1173 111 1173 q 166 1170 155 1173 q 260 1113 218 1152 q 289 1084 275 1098 q 300 1072 295 1078 l 302 1070 l 305 1069 q 350 1069 330 1065 q 387 1078 370 1072 q 435 1092 411 1084 q 511 1114 473 1103 q 547 1118 529 1118 q 549 1118 548 1118 q 552 1116 550 1118 q 555 1111 553 1114 q 556 1104 557 1107 q 553 1100 555 1101 q 518 1074 538 1086 q 392 1027 459 1045 q 374 1021 386 1025 q 374 1021 374 1021 q 344 1013 359 1017 l 335 1010 l 338 1002 q 364 836 357 926 q 366 670 372 746 q 294 235 349 465 q 212 -75 248 37 l 208 -87 l 220 -87 q 333 -92 274 -87 q 427 -104 391 -97 q 492 -125 456 -111 q 511 -139 502 -130 l 513 -140 q 519 -161 522 -149 q 509 -178 518 -173 m 204 1060 l 204 1060 l 215 1063 l 210 1072 q 181 1112 201 1093 q 137 1121 161 1131 q 123 1108 125 1116 q 123 1093 120 1100 q 147 1068 129 1078 q 188 1058 165 1058 q 204 1060 196 1058 z "},"\\":{"ha":790,"x_min":68,"x_max":722,"o":"m 705 -153 q 693 -152 699 -155 q 682 -146 687 -150 q 656 -123 667 -136 q 616 -60 631 -88 q 538 96 578 11 q 408 355 470 245 q 258 620 336 486 q 167 772 213 697 q 113 862 140 817 q 77 928 94 895 q 68 961 71 941 q 70 973 68 966 q 81 985 73 979 q 107 985 94 993 q 134 963 121 977 q 200 880 174 916 q 567 295 402 606 q 646 132 616 201 q 667 84 656 108 q 702 5 686 45 q 721 -77 717 -35 q 722 -104 722 -90 q 705 -153 718 -144 l 705 -153 z "},"]":{"ha":625,"x_min":68,"x_max":557,"o":"m 116 -178 q 104 -161 106 -173 q 111 -140 103 -149 l 113 -139 q 133 -125 123 -130 q 197 -104 168 -111 q 292 -92 233 -97 q 405 -87 351 -87 l 417 -87 l 413 -75 q 330 235 376 37 q 259 670 276 465 q 260 836 253 746 q 287 1002 268 926 l 289 1010 l 281 1013 q 251 1021 265 1017 q 251 1021 251 1021 q 233 1027 239 1025 q 106 1074 165 1045 q 72 1100 87 1086 q 69 1104 70 1101 q 69 1111 68 1107 q 73 1116 71 1114 q 75 1118 74 1118 q 77 1118 77 1118 q 113 1114 96 1118 q 189 1092 151 1103 q 237 1078 213 1084 q 274 1069 254 1072 q 319 1069 295 1065 l 322 1070 l 324 1072 q 336 1084 330 1078 q 365 1113 350 1098 q 458 1170 406 1152 q 481 1173 470 1173 q 537 1145 514 1173 q 553 1091 556 1120 q 528 1040 551 1061 q 465 1009 503 1017 q 429 1004 449 1006 q 399 1000 414 1002 l 394 999 l 392 995 q 380 958 384 976 q 364 781 359 865 q 378 629 368 703 q 452 246 406 433 q 508 -14 487 112 q 518 -80 513 -47 l 523 -112 l 528 -120 q 536 -134 532 -127 q 543 -142 539 -138 q 549 -153 547 -147 q 553 -174 557 -165 q 548 -183 552 -179 q 536 -189 545 -187 q 517 -186 527 -188 q 461 -178 489 -184 q 375 -174 412 -169 q 208 -187 288 -181 q 149 -188 177 -190 q 116 -178 135 -187 l 116 -178 m 420 1060 q 437 1058 428 1058 q 477 1068 459 1058 q 501 1093 496 1078 q 501 1108 504 1100 q 488 1121 498 1116 q 444 1112 463 1131 q 414 1072 424 1093 l 410 1063 l 420 1060 l 420 1060 z "},"^":{"ha":511,"x_min":17,"x_max":494,"o":"m 483 659 l 483 659 q 456 656 471 650 l 453 657 q 416 675 433 665 q 288 798 332 732 q 272 820 281 807 q 272 820 272 820 q 257 840 264 831 l 249 851 l 242 839 q 236 827 238 832 q 235 827 235 827 q 232 820 233 823 q 212 786 222 803 q 212 785 212 786 q 198 760 205 772 q 125 667 165 703 q 58 624 90 634 q 19 629 32 615 q 18 641 17 636 q 21 648 19 645 q 39 669 29 660 q 158 849 106 732 q 168 873 163 861 q 168 873 168 873 q 185 911 176 892 q 208 949 196 933 q 241 967 221 964 q 278 958 262 970 q 293 945 285 952 q 307 928 301 937 q 474 718 370 821 q 494 675 492 700 q 493 672 494 674 q 483 659 489 665 z "},"_":{"ha":570,"x_min":17,"x_max":553,"o":"m 32 -98 l 32 -98 q 21 -90 26 -97 q 19 -77 17 -83 q 34 -57 25 -64 q 79 -32 57 -41 q 222 6 154 -2 q 330 12 274 12 q 523 -3 418 12 q 527 -5 525 -4 q 528 -5 528 -5 l 530 -5 q 544 -14 538 -7 q 552 -29 551 -21 q 548 -49 553 -40 q 532 -62 542 -58 q 475 -76 508 -71 q 433 -77 458 -78 q 431 -77 432 -77 q 401 -77 418 -77 l 389 -77 q 334 -72 366 -75 q 203 -75 263 -66 q 164 -81 184 -79 q 163 -81 163 -81 q 68 -96 116 -89 q 32 -98 49 -98 z "},"`":{"ha":345,"x_min":0,"x_max":0,"o":""},"a":{"ha":382,"x_min":18,"x_max":343,"o":"m 319 336 l 319 336 q 340 71 343 205 q 336 41 340 56 q 305 11 330 17 q 273 40 280 16 q 266 67 268 53 q 262 84 264 76 q 259 103 261 92 q 252 133 256 120 q 163 136 205 144 q 138 75 144 110 q 130 46 134 59 q 124 32 127 39 q 107 -10 117 10 q 82 -25 100 -24 q 64 -19 73 -25 q 53 -5 56 -14 q 52 -1 52 -3 q 47 32 47 16 q 52 76 49 52 q 59 119 56 100 q 64 143 61 130 q 70 163 68 153 q 26 192 45 174 q 22 211 18 201 q 39 224 26 220 q 60 227 49 227 q 68 229 64 228 q 89 231 79 230 q 99 233 94 232 q 109 250 104 241 q 130 286 118 269 q 199 386 163 337 q 220 408 208 398 q 272 422 247 431 q 306 388 296 414 q 319 336 315 362 m 262 229 l 262 229 q 262 241 262 229 q 263 271 263 254 q 260 304 262 288 q 251 329 257 321 q 238 327 246 335 q 222 304 231 319 q 206 273 214 290 q 193 245 198 256 q 189 233 189 233 q 197 233 189 233 q 217 233 205 233 q 241 232 229 233 q 262 229 254 231 z "},"b":{"ha":455,"x_min":24,"x_max":434,"o":"m 383 267 l 383 267 q 411 233 399 252 q 425 144 434 191 q 406 87 421 113 q 323 2 369 28 q 210 -18 277 -24 q 183 -9 201 -18 q 155 26 166 1 q 146 0 153 7 q 130 -7 139 -7 q 97 2 111 -10 q 82 33 83 14 q 82 42 82 37 q 82 52 82 47 q 107 346 75 201 q 110 360 108 349 q 113 385 111 372 q 95 380 104 385 q 75 370 85 376 q 52 359 62 362 q 30 363 41 357 q 25 370 26 366 q 25 379 24 374 q 33 395 26 388 q 222 482 111 474 q 310 464 268 484 q 352 432 335 454 q 364 353 380 396 q 347 327 358 341 q 326 303 336 312 q 327 302 326 303 q 330 301 328 302 q 332 300 331 300 q 334 299 334 299 q 383 267 360 286 m 190 397 l 190 397 q 188 366 188 381 q 185 328 188 350 q 236 345 216 335 q 273 370 256 354 q 276 383 278 375 q 268 396 275 391 q 217 409 244 410 q 202 407 209 409 q 190 397 195 404 m 333 147 l 333 147 q 315 215 350 187 q 208 243 268 252 q 190 235 198 241 q 183 232 186 233 q 187 161 171 195 q 204 158 195 159 q 245 151 224 155 q 266 132 262 148 q 258 104 271 115 q 231 87 245 95 q 220 81 226 84 q 224 79 222 80 q 228 76 226 77 q 233 75 231 75 q 333 147 302 84 z "},"c":{"ha":441,"x_min":36,"x_max":422,"o":"m 332 269 l 332 269 q 355 279 345 271 q 400 376 400 317 q 357 444 398 422 q 268 456 314 465 q 88 339 151 438 q 41 195 49 273 q 64 87 36 136 q 147 18 93 39 q 278 6 214 -6 q 395 66 343 18 q 419 99 412 80 q 419 120 422 109 q 408 136 416 130 q 385 141 397 142 q 338 130 361 138 q 338 130 338 130 q 271 113 305 118 q 197 125 234 109 q 151 180 159 140 q 151 218 148 199 q 168 290 154 255 q 211 347 182 324 q 245 367 222 355 q 291 380 269 378 q 319 361 313 382 q 317 346 320 353 q 311 332 314 338 q 307 318 309 325 q 306 317 306 317 q 302 303 303 310 q 302 290 300 296 q 332 269 311 268 z "},"d":{"ha":518,"x_min":42,"x_max":490,"o":"m 465 279 l 465 279 q 486 169 490 227 q 435 64 478 108 q 334 5 392 21 q 273 -4 304 -1 q 231 -10 252 -7 q 218 -38 228 -26 q 186 -47 208 -50 q 159 -27 165 -43 q 153 3 152 -12 q 118 26 136 16 q 82 52 99 38 q 56 84 66 65 q 50 132 45 107 q 73 175 55 157 q 119 201 94 192 q 128 205 123 203 q 138 208 130 205 q 147 212 142 210 q 149 235 148 222 q 152 271 149 257 q 165 309 154 292 q 181 322 172 318 q 201 323 191 327 q 217 308 212 319 q 224 286 222 298 q 232 149 232 229 q 234 83 233 113 q 246 81 240 82 q 254 80 252 80 q 254 80 254 80 q 361 120 316 76 q 393 223 408 161 q 330 325 378 285 q 206 380 275 369 q 117 367 159 387 q 81 349 99 358 q 67 342 74 345 q 58 338 63 339 q 46 347 50 339 q 42 362 42 355 q 51 382 43 373 q 152 446 90 434 q 315 426 237 463 q 465 279 415 378 m 104 121 l 104 121 q 114 106 106 113 q 131 97 121 100 q 149 92 141 93 q 156 90 156 90 l 153 153 q 147 153 153 153 q 134 152 142 153 q 119 148 126 151 q 107 138 111 144 q 104 121 102 132 z "},"e":{"ha":408,"x_min":48,"x_max":408,"o":"m 392 336 l 392 336 q 403 342 399 338 q 407 350 406 346 q 407 358 408 355 q 404 365 406 362 q 403 368 403 368 q 384 397 393 386 q 366 414 374 408 q 351 422 357 420 q 340 425 344 425 q 336 425 336 425 q 225 420 283 427 q 124 406 168 414 q 71 393 81 398 q 77 351 48 386 q 95 336 85 341 q 113 329 104 331 q 128 327 122 327 q 134 327 134 327 l 102 262 q 82 259 90 261 q 72 255 75 257 q 68 253 68 253 q 63 236 63 246 q 65 215 63 226 q 71 197 68 205 q 73 190 73 190 q 67 174 73 190 q 55 134 61 158 q 50 85 50 111 q 62 39 50 60 q 88 8 75 19 q 112 -8 101 -3 q 130 -13 123 -12 q 137 -14 137 -14 q 224 5 177 -15 q 308 50 272 24 q 348 89 343 75 q 341 121 352 106 q 316 140 330 136 q 271 135 306 140 q 201 123 236 130 q 157 114 167 117 q 151 114 153 113 q 148 115 149 114 q 146 118 146 117 q 146 121 146 120 q 147 124 146 123 q 148 125 148 125 l 168 191 q 186 192 168 191 q 230 195 205 193 q 278 197 256 196 q 307 200 300 199 q 316 203 313 201 q 321 208 319 205 q 323 212 323 210 q 324 214 324 214 q 325 220 324 214 q 325 234 325 225 q 325 252 326 242 q 323 260 325 257 q 318 266 321 264 q 314 268 316 267 q 310 269 311 269 q 309 269 309 269 q 259 270 284 271 q 215 269 233 270 q 197 268 197 268 l 213 319 q 234 320 213 319 q 284 323 254 321 q 343 329 314 326 q 392 336 372 332 z "},"f":{"ha":417,"x_min":32,"x_max":435,"o":"m 416 452 l 416 452 q 429 445 422 451 q 435 431 435 438 q 434 420 435 426 q 429 410 433 414 q 398 390 416 397 q 265 358 333 368 q 239 355 252 357 q 227 353 233 354 q 208 299 210 328 q 207 288 208 294 q 205 276 206 282 q 204 258 205 269 q 266 259 234 256 q 324 260 296 262 q 324 260 324 260 q 325 260 324 260 q 348 253 342 262 q 349 229 353 243 q 338 203 346 214 q 322 191 330 192 q 320 191 321 191 q 319 191 319 191 q 264 186 292 191 q 196 182 230 180 q 193 144 194 162 q 192 117 192 125 q 192 116 192 117 q 174 35 189 74 q 165 18 171 26 q 163 15 164 16 q 131 -3 151 -3 q 100 15 111 -3 q 85 58 89 35 q 85 183 75 121 q 71 182 78 182 q 56 188 61 180 q 54 196 54 192 q 54 205 54 201 q 54 205 54 205 q 59 227 56 216 q 81 254 64 245 q 102 257 91 258 q 111 291 106 274 q 126 351 119 322 q 106 353 116 351 q 103 353 105 353 q 93 355 98 355 q 45 370 68 357 q 36 381 39 373 q 34 395 32 389 q 39 406 36 401 q 47 413 43 411 q 83 424 64 422 q 129 427 106 426 q 151 428 140 427 q 168 429 160 429 q 310 446 239 431 q 371 453 340 452 q 386 454 378 454 q 409 453 397 455 q 416 452 412 452 z "},"g":{"ha":486,"x_min":27,"x_max":437,"o":"m 338 191 l 338 191 q 338 183 337 186 q 336 173 338 176 q 260 112 307 132 q 224 102 243 104 q 158 125 184 99 q 135 191 132 151 q 163 269 139 233 q 291 374 214 338 q 357 381 321 391 q 373 381 366 378 q 382 391 380 385 q 382 420 389 406 q 352 441 372 438 q 248 429 298 452 q 106 330 168 393 q 43 226 62 286 q 42 121 27 174 q 125 23 64 58 q 247 3 186 -12 q 291 18 269 9 q 319 28 304 23 q 332 31 325 30 q 341 31 336 31 q 344 18 342 24 q 351 -7 347 5 q 354 -22 352 -14 q 367 -66 359 -44 q 389 -96 375 -83 q 413 -102 399 -106 q 433 -86 428 -99 q 437 -57 437 -72 q 435 233 429 87 q 433 252 435 242 q 433 255 433 253 q 415 283 430 273 q 382 288 401 292 q 378 287 380 288 q 368 284 372 286 q 259 249 315 261 q 224 237 241 244 q 207 213 209 229 q 212 201 206 207 q 227 194 218 195 q 233 193 230 193 q 264 191 249 191 q 313 191 288 191 q 338 191 325 191 z "},"h":{"ha":433,"x_min":20,"x_max":383,"o":"m 382 157 l 382 157 q 382 146 382 152 q 381 34 383 90 q 355 2 378 6 q 313 15 332 -1 q 287 70 292 37 q 281 132 281 102 q 281 149 281 140 q 281 191 280 170 q 242 189 262 194 q 203 177 222 184 q 181 159 189 172 q 174 131 173 146 q 175 131 174 131 q 179 96 176 113 q 185 39 182 67 q 179 16 186 26 q 163 2 172 6 q 119 9 139 -6 q 86 50 96 24 q 71 90 78 69 q 64 109 68 99 q 56 112 60 111 q 37 119 47 115 q 23 137 26 126 q 26 159 20 149 q 66 200 42 182 q 74 256 70 226 q 87 343 80 301 q 104 399 93 372 q 113 418 107 409 q 130 432 119 428 q 147 431 138 435 q 160 418 157 427 q 160 418 160 418 q 166 389 165 404 q 166 342 167 366 q 165 297 165 319 q 165 283 165 293 q 165 263 165 274 q 228 276 193 269 q 290 289 262 283 q 296 326 293 307 q 303 375 299 357 q 312 406 307 391 q 315 413 313 410 q 328 436 318 427 q 356 441 341 448 q 376 418 372 435 q 376 417 376 418 q 380 388 379 402 q 380 357 380 372 q 380 334 380 346 q 380 259 380 296 q 382 157 382 208 z "},"i":{"ha":225,"x_min":-33,"x_max":382,"o":"m 161 3 l 161 3 q 171 33 168 9 q 173 85 173 57 q 172 135 173 113 q 171 156 171 156 q 170 180 171 156 q 167 236 168 203 q 164 296 165 268 q 161 337 162 325 q 154 369 159 357 q 142 390 149 381 q 140 393 141 391 q 130 405 136 399 q 116 411 124 410 q 98 403 109 412 q 79 329 84 387 q 73 203 75 271 q 73 176 73 189 q 87 12 69 37 q 121 -4 97 -1 q 161 3 144 -7 m 303 758 l 303 758 q 311 758 303 758 q 331 754 319 758 q 355 743 343 751 q 374 722 366 735 q 382 687 382 708 q 328 577 382 633 q 203 495 273 521 l 203 496 q 128 484 159 482 q 71 498 96 486 q 53 470 60 478 q 37 461 45 463 q 21 468 28 461 q 9 482 14 474 q 3 495 4 490 q 2 496 3 496 q -3 511 -1 501 q 1 538 -5 521 q -28 588 -22 562 q -28 634 -33 614 q -2 687 -25 652 q 71 755 21 722 q 203 796 120 788 q 216 797 203 796 q 247 794 229 797 q 279 783 264 791 q 300 758 294 774 l 303 758 m 35 600 l 35 600 q 77 653 50 622 q 142 711 103 684 q 45 654 81 707 q 35 600 21 614 m 317 651 l 317 651 q 318 655 317 651 q 320 666 319 660 q 320 680 321 673 q 315 692 319 686 q 302 700 311 698 q 278 701 293 703 q 186 650 236 692 q 104 563 136 609 q 175 559 135 556 q 254 584 216 563 q 317 651 292 604 z "},"j":{"ha":264,"x_min":-9,"x_max":406,"o":"m 112 387 l 112 387 q 107 361 106 374 q 112 319 108 340 q 125 183 123 252 q 127 46 127 115 q 127 31 127 39 q 117 -59 128 -14 q 107 -79 114 -70 q 101 -84 105 -82 q 94 -85 98 -85 q 91 -84 93 -85 q 87 -81 89 -83 q 85 -77 85 -79 q 87 -32 85 -54 q 93 -6 90 -19 q 98 20 96 7 q 98 43 98 32 q 97 51 97 47 q 91 64 96 58 q 79 73 86 71 q 64 72 72 75 q 52 63 57 69 q 11 -42 20 15 q 9 -102 6 -72 q 33 -153 12 -133 q 84 -174 54 -172 q 189 -111 157 -175 q 205 -54 201 -83 q 213 43 212 -5 q 202 227 215 136 q 188 307 196 267 q 186 317 187 312 q 159 389 180 356 q 136 402 150 401 q 114 390 123 403 q 112 387 113 389 m 328 758 l 328 758 q 336 758 328 758 q 355 754 344 758 q 379 743 367 751 q 398 722 391 735 q 406 687 406 708 q 351 577 406 633 q 227 495 297 521 l 227 496 q 152 484 184 482 q 96 498 120 486 q 77 470 85 478 q 61 461 69 463 q 45 468 52 461 q 33 482 38 474 q 27 495 28 490 q 26 496 27 496 q 21 511 23 501 q 26 538 19 521 q -4 588 1 562 q -4 634 -9 614 q 22 687 -1 652 q 94 755 45 722 q 228 796 144 788 q 241 797 228 796 q 271 794 254 797 q 303 783 288 791 q 325 758 319 774 l 328 758 m 59 600 l 59 600 q 101 653 74 622 q 167 711 127 684 q 69 654 105 707 q 59 600 45 614 m 340 651 l 340 651 q 342 655 340 651 q 344 666 343 660 q 344 680 345 673 q 339 692 343 686 q 326 700 335 698 q 302 701 317 703 q 210 650 260 692 q 128 563 159 609 q 199 559 159 556 q 278 584 240 563 q 340 651 316 604 z "},"k":{"ha":427,"x_min":55,"x_max":408,"o":"m 402 410 l 402 410 q 356 345 380 375 q 299 285 333 314 q 283 273 294 281 q 261 258 273 266 q 238 241 247 248 q 313 195 281 227 q 366 124 344 162 q 374 111 371 117 q 395 79 385 96 q 403 50 402 64 q 366 12 402 14 q 324 26 342 11 q 279 72 300 48 q 276 75 278 74 q 253 102 264 89 q 232 128 243 116 q 188 157 214 149 q 185 157 186 158 q 172 141 173 154 q 171 116 172 129 q 170 87 171 101 q 170 74 170 80 q 166 34 170 54 q 152 7 162 20 q 132 -3 144 -1 q 111 3 120 -4 q 86 31 95 15 q 66 112 68 69 q 77 408 55 260 q 92 448 82 429 q 94 451 93 450 q 107 464 98 459 q 125 466 117 468 q 148 448 142 463 q 159 395 157 422 q 161 357 161 376 q 162 325 161 342 q 162 311 162 321 q 163 292 163 302 q 164 276 163 282 q 294 393 234 330 q 309 408 302 401 q 332 432 318 420 q 360 451 345 444 q 401 444 383 463 q 408 428 408 437 q 402 410 408 418 z "},"l":{"ha":296,"x_min":48,"x_max":294,"o":"m 251 153 l 251 153 q 231 149 241 153 q 212 140 221 145 q 202 136 207 138 q 191 130 196 133 q 157 115 174 122 q 143 117 149 112 q 136 131 136 123 q 136 136 136 134 q 138 161 136 149 q 165 354 151 258 q 168 423 172 389 q 158 439 166 431 q 141 448 150 446 q 115 435 124 448 q 98 401 104 420 q 52 173 66 289 q 51 104 48 139 q 51 88 51 96 q 58 58 52 73 q 92 17 68 31 q 143 10 115 3 q 163 16 153 12 q 218 44 183 23 q 273 93 253 66 q 271 145 294 120 q 251 153 261 153 z "},"m":{"ha":570,"x_min":44,"x_max":538,"o":"m 517 275 l 517 275 q 512 18 538 146 q 506 3 510 10 q 485 -11 498 -9 q 460 -6 472 -14 q 438 33 441 9 q 434 95 435 64 q 433 116 433 105 q 432 168 432 142 q 431 208 432 188 q 431 211 431 209 q 431 220 432 216 q 427 228 431 225 q 415 227 420 232 q 407 216 410 222 q 392 180 398 199 q 382 154 387 167 q 370 123 376 138 q 323 28 353 73 q 288 11 309 10 q 252 29 267 12 q 240 49 245 39 q 224 92 231 71 q 189 217 203 155 q 182 250 184 235 q 173 297 180 273 q 173 297 173 297 q 172 300 172 298 q 170 301 171 301 q 161 300 165 303 q 154 293 157 298 q 151 286 151 289 q 128 111 125 199 q 129 71 128 91 q 130 64 130 68 q 130 54 130 60 q 128 23 132 38 q 102 5 119 3 q 74 24 84 7 q 61 60 64 41 q 51 205 44 132 q 117 391 64 306 q 165 427 138 425 q 219 398 193 429 q 235 373 229 385 q 246 340 241 361 q 266 261 256 304 q 293 153 278 204 q 369 352 337 252 q 374 371 372 363 q 385 404 378 387 q 420 429 398 427 q 460 414 442 431 q 486 376 477 397 q 490 366 488 371 q 517 275 508 321 z "},"n":{"ha":442,"x_min":44,"x_max":410,"o":"m 385 62 l 386 62 q 404 155 397 87 q 387 309 410 222 q 346 398 370 366 q 302 444 321 431 q 283 457 283 457 q 281 458 283 457 q 277 459 279 458 q 271 458 274 459 q 265 455 268 458 q 261 448 262 453 q 260 430 259 439 q 262 416 260 422 q 263 410 263 410 q 308 232 297 296 q 319 169 319 169 q 319 165 319 169 q 319 155 319 161 q 318 146 319 150 q 315 141 317 142 q 313 140 315 140 q 311 140 312 140 q 310 141 311 140 q 308 141 309 141 q 308 142 308 142 q 297 155 306 142 q 279 183 289 167 q 261 212 269 199 q 253 224 253 224 l 244 240 q 180 331 203 304 q 157 357 157 357 q 145 367 153 361 q 127 371 138 372 q 104 357 117 370 q 72 278 85 334 q 53 158 59 222 q 63 8 44 36 q 91 -11 75 -7 q 124 -2 108 -14 q 140 47 136 9 q 144 129 144 85 q 146 180 144 158 q 147 191 146 186 q 148 200 147 196 q 148 208 148 205 q 149 214 149 212 q 150 218 149 216 q 151 222 151 220 q 152 224 151 224 q 152 226 152 225 q 153 227 153 227 q 154 227 153 227 q 154 227 154 227 q 154 227 154 227 q 155 227 155 227 q 155 227 155 227 q 161 219 157 227 q 172 202 166 212 q 181 185 177 193 q 185 177 185 177 q 196 156 185 177 q 224 105 207 134 q 260 52 241 77 q 296 18 279 27 q 352 21 328 5 q 385 62 376 37 z "},"o":{"ha":475,"x_min":28,"x_max":463,"o":"m 437 309 l 437 309 q 418 129 463 210 q 275 14 373 48 q 162 12 218 -5 q 45 137 68 41 q 64 293 28 221 q 175 403 99 364 q 248 427 210 420 q 262 429 255 429 q 263 429 262 429 q 275 426 269 428 q 290 422 282 424 q 337 410 313 416 q 437 309 418 389 m 218 92 l 218 92 q 311 144 272 103 q 294 148 300 146 q 274 154 284 151 q 260 158 267 156 q 176 254 189 180 q 178 310 174 273 q 160 295 168 302 q 151 286 152 288 q 127 157 112 227 q 135 137 130 146 q 171 102 146 115 q 218 92 195 89 m 353 259 l 353 259 q 340 313 357 288 q 311 331 330 329 q 275 319 290 332 q 258 283 260 306 q 267 252 256 265 q 300 236 279 239 q 310 235 304 235 q 318 235 313 235 q 323 237 320 236 q 341 242 332 238 q 349 250 346 245 q 353 259 353 254 z "},"p":{"ha":496,"x_min":18,"x_max":477,"o":"m 406 364 l 406 364 q 473 225 477 298 q 412 98 469 152 q 264 25 349 39 q 233 21 250 23 q 213 19 224 20 q 211 -5 210 17 q 213 -54 211 -26 q 216 -100 214 -81 q 217 -116 217 -113 q 218 -131 217 -122 q 219 -189 222 -158 q 190 -227 216 -219 q 182 -227 186 -228 q 151 -201 161 -222 q 136 -159 141 -180 q 133 -149 134 -153 q 115 -43 117 -97 q 114 20 115 -10 q 113 43 114 32 q 97 60 106 55 q 79 69 88 66 q 66 75 73 72 q 62 77 64 77 q 34 96 47 85 q 24 130 18 109 q 46 153 29 146 q 87 156 66 160 q 93 154 88 155 q 103 151 98 153 q 114 148 109 149 q 118 146 118 146 q 143 290 134 215 q 153 355 148 323 q 153 357 153 355 q 155 370 154 361 q 143 366 150 368 q 117 360 131 363 q 92 361 102 357 q 81 380 82 365 q 90 401 81 391 q 109 416 98 410 q 287 431 195 457 q 406 364 353 411 m 357 184 l 357 184 q 359 290 396 237 q 307 338 337 318 q 275 355 292 349 q 258 361 267 359 q 256 362 257 362 q 249 364 252 363 q 242 363 245 365 q 237 359 239 362 q 231 347 233 353 q 220 264 221 306 q 220 260 220 262 q 219 245 219 252 q 212 170 218 208 q 210 151 211 164 q 209 123 209 138 q 292 136 249 116 q 357 184 335 157 z "},"q":{"ha":527,"x_min":26,"x_max":514,"o":"m 507 -134 l 507 -134 q 493 -239 514 -189 q 470 -278 484 -260 q 412 -309 445 -309 q 353 -279 379 -309 q 317 -212 329 -249 q 288 -55 294 -135 q 283 -24 286 -40 q 281 -9 282 -17 q 262 -5 271 -7 q 220 3 241 -1 q 46 165 83 31 q 63 312 26 242 q 182 427 103 389 q 344 463 258 463 q 402 447 375 462 q 438 414 422 433 q 440 411 439 412 q 427 363 462 382 q 412 357 420 361 q 406 354 409 356 q 391 142 385 248 q 392 141 391 142 q 393 135 392 138 q 396 127 393 132 q 422 130 408 128 q 468 133 446 132 q 487 127 478 133 q 498 113 495 121 q 493 77 505 94 q 471 57 484 66 q 458 50 465 54 q 444 43 450 47 q 435 33 438 39 q 438 28 435 33 q 446 16 441 23 q 456 0 451 8 q 464 -14 461 -7 q 507 -134 498 -69 m 313 303 l 313 303 q 324 360 317 330 q 330 386 328 374 q 298 388 314 390 q 201 348 245 379 q 134 250 149 311 q 172 132 120 180 q 223 105 192 115 q 286 104 254 96 q 292 133 289 119 q 295 152 294 146 q 302 212 299 182 q 313 303 307 258 m 428 -205 l 428 -205 q 446 -167 444 -205 q 435 -85 448 -130 q 395 -20 422 -41 q 395 -47 395 -20 q 399 -112 396 -75 q 409 -176 402 -148 q 428 -205 416 -203 z "},"r":{"ha":488,"x_min":22,"x_max":475,"o":"m 403 104 l 403 104 q 449 31 436 73 q 450 -13 456 10 q 431 -35 446 -28 q 399 -35 416 -42 q 354 7 371 -19 q 281 79 323 47 q 205 109 248 106 q 201 109 203 109 q 186 99 192 106 q 180 82 180 92 q 180 79 180 81 q 181 37 182 56 q 174 9 180 23 q 149 -11 167 -6 q 116 -7 132 -16 q 87 38 92 10 q 83 92 81 65 q 83 96 83 94 q 88 222 82 159 q 96 282 90 245 q 109 353 102 318 q 112 372 111 363 q 112 372 112 372 q 112 372 112 372 q 95 368 103 370 q 68 359 82 363 q 68 359 68 359 q 51 356 60 357 q 34 359 42 355 q 24 371 25 363 q 26 386 22 378 q 39 402 31 395 q 71 421 53 414 q 73 422 72 422 q 112 439 92 432 q 192 456 151 453 q 354 427 277 463 q 452 314 431 392 q 408 172 475 231 q 379 150 394 161 q 363 139 372 145 q 363 139 363 139 q 363 139 363 139 q 377 127 370 133 q 403 104 391 115 m 325 228 l 325 228 q 354 313 378 259 q 315 355 340 339 q 260 378 295 370 q 190 386 224 387 q 190 386 190 386 q 189 385 189 386 q 186 332 188 362 q 180 229 182 276 l 180 229 q 188 209 180 217 q 208 199 196 200 q 325 228 273 195 z "},"s":{"ha":492,"x_min":37,"x_max":463,"o":"m 460 366 l 460 367 q 463 375 463 371 q 463 381 463 378 q 462 385 463 383 q 461 386 461 386 q 417 405 448 399 q 352 412 387 410 q 291 414 317 414 q 265 413 265 413 q 186 401 233 411 q 99 371 139 391 q 47 320 58 351 q 39 281 40 297 q 39 256 37 266 q 42 242 40 246 q 45 237 45 237 q 81 218 54 224 q 140 210 108 212 q 195 208 172 208 q 214 207 207 207 q 290 198 242 205 q 363 178 338 191 q 376 166 372 172 q 380 156 380 161 q 379 146 380 151 q 375 139 377 142 q 374 137 374 137 q 294 96 347 109 q 190 84 241 83 q 115 97 138 85 q 100 115 102 106 q 111 138 98 125 q 125 145 116 144 q 143 144 134 146 q 162 139 153 142 q 175 133 170 136 q 178 131 179 131 q 183 128 174 133 q 210 118 192 123 q 250 112 227 113 q 309 121 287 111 q 333 144 331 132 q 328 156 334 151 q 313 166 321 161 q 299 173 305 170 q 292 176 292 176 q 179 195 222 195 q 116 188 136 195 q 96 181 96 181 q 64 151 73 167 q 56 121 56 136 q 61 95 56 106 q 71 76 66 83 q 76 69 76 69 q 214 -1 140 5 q 345 11 288 -7 q 416 42 402 30 q 439 76 431 56 q 448 137 447 96 q 442 181 448 163 q 431 206 437 198 q 425 214 425 214 q 367 250 404 239 q 293 263 330 260 q 240 265 257 265 q 202 269 224 266 q 159 274 179 271 q 130 279 138 277 q 123 281 125 279 q 121 284 121 282 q 120 287 120 286 q 121 290 121 289 q 123 293 122 292 q 123 294 123 294 q 176 308 131 301 q 278 321 221 315 q 378 330 334 327 q 421 334 421 334 q 447 344 439 336 q 457 361 454 352 q 460 366 459 363 z "},"t":{"ha":412,"x_min":12,"x_max":415,"o":"m 360 466 l 360 466 q 408 406 401 446 q 382 333 415 367 q 330 304 360 312 q 278 292 304 298 q 254 286 266 289 q 251 277 252 281 q 245 258 246 268 q 245 255 245 256 q 243 159 241 207 q 244 127 243 144 q 260 -46 245 41 q 255 -106 268 -76 q 232 -123 248 -119 q 203 -117 216 -127 q 193 -107 197 -113 q 184 -94 187 -101 q 142 28 153 -37 q 132 130 136 79 q 135 233 129 181 q 146 294 138 262 q 117 306 134 299 q 75 325 93 315 q 21 395 33 349 q 32 460 12 432 q 90 494 52 488 q 104 491 97 494 q 104 490 104 490 q 117 477 115 486 q 114 460 120 467 q 106 452 110 456 q 97 444 101 448 q 102 391 75 415 q 165 370 126 374 q 178 388 172 379 q 203 421 191 406 q 331 473 253 483 q 360 466 347 471 m 262 367 l 262 367 q 308 376 288 368 q 336 395 329 384 q 328 418 343 406 q 307 422 317 425 q 290 411 298 420 q 275 392 281 402 q 265 374 269 382 q 262 367 262 367 z "},"u":{"ha":425,"x_min":39,"x_max":389,"o":"m 384 296 l 384 296 q 382 317 382 307 q 375 364 380 341 q 353 429 368 397 q 327 455 344 444 q 302 460 316 463 q 280 445 289 456 q 270 409 269 429 q 280 349 274 379 q 282 205 294 277 q 254 136 276 167 q 227 110 242 120 q 177 101 202 95 q 144 142 153 107 q 144 144 144 143 q 143 149 143 146 q 157 345 129 249 q 164 364 161 355 q 174 395 169 380 q 172 413 176 404 q 159 427 168 422 q 124 422 142 436 q 90 373 101 401 q 52 127 39 256 q 58 98 54 113 q 150 7 77 26 q 292 42 231 -12 q 374 176 355 95 q 384 296 389 235 z "},"v":{"ha":403,"x_min":33,"x_max":379,"o":"m 358 350 l 358 350 q 359 205 379 278 q 298 67 340 131 q 243 15 276 35 q 159 25 197 -10 q 136 55 145 38 q 115 104 124 79 q 44 313 79 208 q 33 357 37 335 q 35 383 33 370 q 35 387 35 385 q 44 404 37 397 q 61 412 52 410 q 96 392 83 413 q 119 350 110 372 q 124 336 121 342 q 174 215 153 277 q 193 163 182 193 q 216 110 203 134 q 248 172 235 138 q 267 231 262 207 q 268 329 279 279 q 264 343 267 336 q 252 404 257 374 q 262 441 250 424 q 296 452 275 459 q 318 436 309 447 q 334 413 328 425 q 358 350 349 383 z "},"w":{"ha":583,"x_min":33,"x_max":557,"o":"m 533 322 l 533 322 q 538 149 557 236 q 457 23 521 71 q 342 -3 406 -17 q 309 9 324 2 q 275 31 294 17 q 251 19 265 24 q 224 13 236 14 q 112 40 157 7 q 50 129 66 73 q 49 250 33 190 q 105 363 64 313 q 188 428 138 406 q 210 434 198 433 q 233 429 222 435 q 243 413 241 423 q 238 395 245 404 q 211 368 225 381 q 195 352 203 360 q 130 217 140 295 q 153 124 120 165 q 173 111 159 117 q 204 115 186 106 q 193 149 197 130 q 189 183 189 169 q 206 257 189 222 q 262 309 228 297 q 336 305 297 320 q 385 250 372 290 q 380 138 401 193 q 372 122 377 131 q 361 104 366 113 q 357 99 359 102 q 370 97 363 96 q 382 99 376 97 q 391 102 388 101 q 431 165 423 125 q 427 308 448 237 q 395 368 418 342 q 368 400 381 384 q 318 461 340 429 q 309 511 301 485 q 322 523 312 519 q 342 526 332 528 q 344 526 343 526 q 370 517 358 523 q 506 385 453 466 q 533 322 524 356 m 284 143 l 284 143 q 326 203 324 172 q 310 251 328 235 q 275 247 292 267 q 262 213 263 231 q 267 179 262 195 q 278 153 273 163 q 284 143 284 143 z "},"x":{"ha":404,"x_min":35,"x_max":414,"o":"m 56 -56 l 56 -56 q 87 -36 77 -53 q 121 23 105 -7 q 137 54 129 37 q 163 104 149 83 q 177 87 172 94 q 186 75 182 81 q 275 -21 227 23 q 296 -41 286 -31 q 318 -56 307 -50 q 321 -58 320 -57 q 339 -59 329 -62 q 356 -48 349 -56 q 365 -13 369 -33 q 331 55 355 24 q 307 86 319 71 q 272 134 290 110 q 265 143 269 138 q 232 202 245 168 q 313 300 264 257 q 355 334 334 317 q 385 357 370 346 q 405 380 396 367 q 407 408 414 393 q 384 426 399 424 q 361 425 372 427 q 344 418 352 422 q 340 416 342 417 q 231 335 277 386 q 212 317 222 326 q 184 290 199 305 q 176 304 180 296 q 168 319 172 312 q 151 362 159 340 q 136 396 144 379 q 117 437 127 417 q 100 452 111 448 q 78 454 89 457 q 61 442 68 452 q 54 420 54 432 q 54 389 53 404 q 89 257 62 321 q 109 208 98 233 q 117 186 113 197 q 103 156 110 171 q 73 88 87 122 q 37 -28 47 33 q 56 -56 35 -50 z "},"y":{"ha":473,"x_min":-15,"x_max":448,"o":"m 405 388 l 405 388 q 446 287 444 356 q 418 161 448 217 q 369 94 402 132 q 288 31 336 56 q 181 18 240 7 l 180 18 q 129 -129 152 -50 q 92 -313 106 -208 q 91 -315 92 -313 q 89 -322 90 -318 q 84 -329 87 -326 q 76 -333 81 -332 q 64 -331 71 -334 q 25 -299 46 -325 q -4 -233 3 -273 q 81 85 -15 -122 q 60 140 66 107 q 60 218 53 173 q 69 251 60 218 q 106 331 78 283 q 189 431 134 380 q 191 433 189 431 q 196 437 193 435 q 203 439 199 439 q 210 439 207 440 q 215 426 214 437 q 214 403 216 416 q 208 381 212 391 q 196 357 205 374 q 177 322 187 341 q 159 291 167 304 q 151 277 151 277 q 146 268 151 277 q 137 242 142 258 q 129 208 132 227 q 129 172 125 190 q 208 281 159 220 q 309 378 256 342 q 405 388 362 414 m 329 161 l 329 161 q 373 214 349 176 q 394 303 397 251 q 393 305 394 303 q 392 310 393 307 q 389 314 391 312 q 384 318 387 317 q 377 318 381 319 q 367 313 373 317 q 354 300 361 309 l 354 300 q 294 229 330 275 q 225 119 259 182 q 289 137 260 123 q 329 161 318 151 z "},"z":{"ha":397,"x_min":29,"x_max":394,"o":"m 392 44 l 392 44 q 381 16 394 27 q 342 5 364 4 q 301 7 322 4 q 104 8 202 26 q 88 7 96 7 q 43 33 58 13 q 37 83 29 54 q 64 138 47 113 q 155 255 106 197 q 165 267 159 261 q 182 287 171 275 q 202 311 192 298 q 219 332 212 323 q 212 333 216 332 q 202 334 207 334 q 192 335 195 334 q 72 380 127 347 q 45 404 57 389 q 42 414 43 408 q 43 425 41 420 q 59 438 48 434 q 80 439 69 441 q 115 428 98 434 q 126 424 121 426 q 217 404 170 410 q 302 422 263 396 q 304 423 303 422 q 309 426 307 425 q 352 429 330 438 q 366 416 361 425 q 369 381 376 399 q 358 357 365 369 q 272 231 317 292 q 252 204 262 217 q 210 146 231 176 q 209 128 203 138 q 216 121 211 123 q 225 117 220 119 q 273 106 249 111 q 329 92 300 99 q 370 73 351 85 q 392 44 389 64 z "},"{":{"ha":345,"x_min":0,"x_max":0,"o":""},"|":{"ha":285,"x_min":68,"x_max":217,"o":"m 172 -168 l 172 -168 q 153 -159 161 -168 q 124 -94 130 -132 q 111 11 115 -41 q 98 253 102 130 q 82 557 95 384 q 83 967 68 749 q 102 1094 90 1031 q 116 1139 107 1117 q 117 1140 117 1139 q 121 1149 119 1145 q 129 1158 122 1154 q 142 1162 136 1162 q 142 1162 142 1162 q 157 1155 152 1160 q 163 1145 161 1150 q 170 1118 169 1131 q 170 1065 172 1090 q 178 793 169 928 q 201 533 187 659 q 217 199 216 368 l 216 125 q 212 -59 214 33 l 212 -60 q 202 -130 214 -98 q 189 -157 196 -144 q 172 -168 182 -167 z "},"}":{"ha":345,"x_min":0,"x_max":0,"o":""},"~":{"ha":4433,"x_min":68,"x_max":4433,"o":"m 275 755 l 275 755 q 323 769 297 764 q 368 777 349 775 q 387 772 387 778 q 365 731 387 770 q 312 637 343 692 q 210 459 245 523 q 162 370 174 396 q 153 342 150 345 q 191 336 157 338 q 273 334 225 334 l 389 334 l 383 268 q 379 224 381 248 q 372 147 376 179 l 367 94 l 335 98 q 198 159 264 109 q 95 281 132 210 q 77 324 83 307 q 69 365 71 342 q 68 435 68 389 q 69 503 68 479 q 75 544 71 527 q 90 581 80 560 q 275 755 148 703 m 430 713 l 430 713 l 440 777 l 471 772 q 607 706 541 760 q 708 582 673 653 q 723 544 718 561 q 729 504 728 528 q 731 435 731 479 q 729 368 731 391 q 723 327 728 344 q 708 289 718 310 q 551 129 654 182 q 497 107 527 117 q 444 95 467 98 q 420 97 420 91 q 454 159 420 99 q 535 307 487 220 q 617 455 584 393 q 650 520 650 517 q 530 529 650 528 l 410 529 l 416 589 q 422 649 418 614 q 430 713 426 684 m 1612 694 l 1612 694 q 1721 705 1649 707 q 1788 698 1765 703 q 1839 677 1811 693 q 1952 560 1912 639 q 1968 517 1965 540 q 1972 439 1972 494 q 1968 362 1972 385 q 1952 319 1965 340 q 1729 174 1880 181 q 1619 185 1665 170 q 1531 241 1574 200 q 1465 328 1484 282 q 1446 439 1446 373 q 1450 504 1446 479 q 1466 553 1454 528 q 1528 636 1485 595 q 1612 694 1571 677 m 1777 555 l 1777 555 q 1690 571 1733 580 q 1615 526 1646 562 q 1585 439 1585 491 q 1620 345 1585 382 q 1712 308 1656 308 q 1801 346 1763 308 q 1840 439 1838 385 q 1821 503 1840 467 q 1777 555 1802 538 m 3211 693 l 3211 693 q 3317 707 3258 709 q 3419 686 3377 705 q 3452 668 3438 677 q 3469 654 3466 659 q 3462 629 3471 646 q 3440 593 3454 612 q 3414 562 3427 574 q 3396 549 3402 549 q 3383 554 3392 551 q 3346 567 3366 559 q 3267 568 3304 581 q 3207 520 3230 555 q 3183 438 3183 486 q 3220 344 3183 380 q 3313 308 3256 308 l 3353 308 l 3353 363 l 3353 419 l 3419 416 l 3485 414 l 3485 317 l 3485 218 l 3446 198 q 3338 173 3405 176 q 3218 184 3270 169 q 3129 241 3172 200 q 3063 327 3085 281 q 3042 443 3041 380 q 3067 556 3042 505 q 3130 639 3089 600 q 3211 693 3171 678 m 1020 689 l 1020 689 q 1060 697 1020 695 q 1204 697 1101 699 l 1385 694 l 1385 640 l 1385 584 l 1273 582 l 1160 579 l 1160 529 l 1160 479 l 1243 476 l 1326 473 l 1326 414 l 1326 355 l 1243 352 l 1160 349 l 1160 264 l 1160 180 l 1090 182 l 1020 184 l 1017 431 q 1017 608 1017 535 q 1020 689 1018 682 m 2061 439 l 2061 439 l 2061 699 l 2136 699 l 2210 698 l 2296 556 l 2384 414 l 2384 557 l 2384 699 l 2452 699 l 2520 699 l 2520 439 l 2520 180 l 2446 182 l 2372 184 l 2287 328 l 2201 469 l 2197 328 l 2193 184 l 2127 182 l 2061 180 l 2061 439 m 2597 640 l 2597 640 l 2597 699 l 2803 697 l 3009 694 l 3009 640 l 3009 584 l 2943 582 l 2877 579 l 2875 382 l 2873 184 l 2803 182 l 2732 180 l 2732 380 l 2732 580 l 2665 580 l 2597 580 l 2597 640 m 3583 439 l 3583 439 l 3583 699 l 3772 697 l 3961 694 l 3961 640 l 3961 584 l 3840 582 l 3718 579 l 3718 537 l 3718 495 l 3812 495 l 3906 495 l 3906 439 l 3906 385 l 3812 385 l 3718 385 l 3718 342 l 3718 299 l 3842 299 l 3965 299 l 3965 240 l 3965 180 l 3774 180 l 3583 180 l 3583 439 m 4020 687 l 4020 687 q 4038 694 4020 692 q 4102 698 4057 697 q 4228 699 4146 699 l 4433 699 l 4433 640 l 4433 580 l 4365 580 l 4297 580 l 4297 380 l 4297 180 l 4227 182 l 4156 184 l 4154 382 l 4152 579 l 4086 582 l 4020 584 l 4017 630 q 4017 665 4017 649 q 4020 687 4017 682 z "},"¡":{"ha":345,"x_min":0,"x_max":0,"o":""},"¢":{"ha":345,"x_min":0,"x_max":0,"o":""},"£":{"ha":345,"x_min":0,"x_max":0,"o":""},"¤":{"ha":345,"x_min":0,"x_max":0,"o":""},"¥":{"ha":345,"x_min":0,"x_max":0,"o":""},"¦":{"ha":345,"x_min":0,"x_max":0,"o":""},"§":{"ha":345,"x_min":0,"x_max":0,"o":""},"¨":{"ha":345,"x_min":0,"x_max":0,"o":""},"©":{"ha":345,"x_min":0,"x_max":0,"o":""},"ª":{"ha":345,"x_min":0,"x_max":0,"o":""},"«":{"ha":345,"x_min":0,"x_max":0,"o":""},"¬":{"ha":345,"x_min":0,"x_max":0,"o":""},"®":{"ha":345,"x_min":0,"x_max":0,"o":""},"¯":{"ha":345,"x_min":0,"x_max":0,"o":""},"°":{"ha":532,"x_min":17,"x_max":515,"o":"m 87 587 l 87 587 q 52 612 66 597 q 18 691 17 648 q 55 768 19 734 q 91 795 71 783 q 109 808 100 801 l 111 809 l 113 811 q 119 829 116 821 q 135 867 126 849 q 258 987 182 959 q 323 1000 292 1000 q 429 959 380 1000 q 477 888 463 930 q 453 693 515 784 q 359 612 418 644 q 149 570 261 563 q 87 587 117 572 m 123 687 l 123 687 l 121 682 l 125 677 q 127 674 126 676 q 128 673 127 674 q 135 666 131 670 q 144 661 138 663 q 194 656 169 656 q 339 699 269 656 q 397 764 380 724 q 389 888 426 831 q 336 927 368 918 q 279 927 304 937 q 179 841 208 902 q 178 832 178 836 q 178 831 178 831 q 178 829 178 830 l 177 823 l 182 820 q 195 812 189 817 q 195 812 195 812 q 225 794 211 804 q 240 756 244 780 q 231 739 237 745 q 216 731 224 733 q 186 722 201 726 q 185 722 185 722 q 159 715 172 720 l 157 715 q 138 707 148 713 q 123 687 128 701 z "},"±":{"ha":345,"x_min":0,"x_max":0,"o":""},"²":{"ha":345,"x_min":0,"x_max":0,"o":""},"³":{"ha":345,"x_min":0,"x_max":0,"o":""},"´":{"ha":345,"x_min":0,"x_max":0,"o":""},"µ":{"ha":345,"x_min":0,"x_max":0,"o":""},"¶":{"ha":345,"x_min":0,"x_max":0,"o":""},"·":{"ha":345,"x_min":0,"x_max":0,"o":""},"∙":{"ha":345,"x_min":0,"x_max":0,"o":""},"¸":{"ha":345,"x_min":0,"x_max":0,"o":""},"¹":{"ha":345,"x_min":0,"x_max":0,"o":""},"º":{"ha":345,"x_min":0,"x_max":0,"o":""},"»":{"ha":345,"x_min":0,"x_max":0,"o":""},"¼":{"ha":345,"x_min":0,"x_max":0,"o":""},"½":{"ha":345,"x_min":0,"x_max":0,"o":""},"¾":{"ha":345,"x_min":0,"x_max":0,"o":""},"¿":{"ha":345,"x_min":0,"x_max":0,"o":""},"À":{"ha":345,"x_min":0,"x_max":0,"o":""},"Á":{"ha":345,"x_min":0,"x_max":0,"o":""},"Â":{"ha":345,"x_min":0,"x_max":0,"o":""},"Ã":{"ha":345,"x_min":0,"x_max":0,"o":""},"Ä":{"ha":345,"x_min":0,"x_max":0,"o":""},"Å":{"ha":345,"x_min":0,"x_max":0,"o":""},"Æ":{"ha":345,"x_min":0,"x_max":0,"o":""},"Ç":{"ha":345,"x_min":0,"x_max":0,"o":""},"È":{"ha":345,"x_min":0,"x_max":0,"o":""},"É":{"ha":345,"x_min":0,"x_max":0,"o":""},"Ê":{"ha":345,"x_min":0,"x_max":0,"o":""},"Ë":{"ha":345,"x_min":0,"x_max":0,"o":""},"Ì":{"ha":345,"x_min":0,"x_max":0,"o":""},"Í":{"ha":345,"x_min":0,"x_max":0,"o":""},"Î":{"ha":345,"x_min":0,"x_max":0,"o":""},"Ï":{"ha":345,"x_min":0,"x_max":0,"o":""},"Ð":{"ha":345,"x_min":0,"x_max":0,"o":""},"Ñ":{"ha":345,"x_min":0,"x_max":0,"o":""},"Ò":{"ha":345,"x_min":0,"x_max":0,"o":""},"Ó":{"ha":345,"x_min":0,"x_max":0,"o":""},"Ô":{"ha":345,"x_min":0,"x_max":0,"o":""},"Õ":{"ha":345,"x_min":0,"x_max":0,"o":""},"Ö":{"ha":345,"x_min":0,"x_max":0,"o":""},"×":{"ha":345,"x_min":0,"x_max":0,"o":""},"Ø":{"ha":345,"x_min":0,"x_max":0,"o":""},"Ù":{"ha":345,"x_min":0,"x_max":0,"o":""},"Ú":{"ha":345,"x_min":0,"x_max":0,"o":""},"Û":{"ha":345,"x_min":0,"x_max":0,"o":""},"Ü":{"ha":345,"x_min":0,"x_max":0,"o":""},"Ý":{"ha":345,"x_min":0,"x_max":0,"o":""},"Þ":{"ha":345,"x_min":0,"x_max":0,"o":""},"ß":{"ha":345,"x_min":0,"x_max":0,"o":""},"à":{"ha":345,"x_min":0,"x_max":0,"o":""},"á":{"ha":345,"x_min":0,"x_max":0,"o":""},"â":{"ha":345,"x_min":0,"x_max":0,"o":""},"ã":{"ha":345,"x_min":0,"x_max":0,"o":""},"ä":{"ha":345,"x_min":0,"x_max":0,"o":""},"å":{"ha":345,"x_min":0,"x_max":0,"o":""},"æ":{"ha":345,"x_min":0,"x_max":0,"o":""},"ç":{"ha":345,"x_min":0,"x_max":0,"o":""},"è":{"ha":345,"x_min":0,"x_max":0,"o":""},"é":{"ha":345,"x_min":0,"x_max":0,"o":""},"ê":{"ha":345,"x_min":0,"x_max":0,"o":""},"ë":{"ha":345,"x_min":0,"x_max":0,"o":""},"ì":{"ha":345,"x_min":0,"x_max":0,"o":""},"í":{"ha":345,"x_min":0,"x_max":0,"o":""},"î":{"ha":345,"x_min":0,"x_max":0,"o":""},"ï":{"ha":345,"x_min":0,"x_max":0,"o":""},"ð":{"ha":345,"x_min":0,"x_max":0,"o":""},"ñ":{"ha":345,"x_min":0,"x_max":0,"o":""},"ò":{"ha":345,"x_min":0,"x_max":0,"o":""},"ó":{"ha":345,"x_min":0,"x_max":0,"o":""},"ô":{"ha":345,"x_min":0,"x_max":0,"o":""},"õ":{"ha":345,"x_min":0,"x_max":0,"o":""},"ö":{"ha":345,"x_min":0,"x_max":0,"o":""},"÷":{"ha":345,"x_min":0,"x_max":0,"o":""},"ø":{"ha":345,"x_min":0,"x_max":0,"o":""},"ù":{"ha":345,"x_min":0,"x_max":0,"o":""},"ú":{"ha":345,"x_min":0,"x_max":0,"o":""},"û":{"ha":345,"x_min":0,"x_max":0,"o":""},"ü":{"ha":345,"x_min":0,"x_max":0,"o":""},"ý":{"ha":345,"x_min":0,"x_max":0,"o":""},"þ":{"ha":345,"x_min":0,"x_max":0,"o":""},"ÿ":{"ha":345,"x_min":0,"x_max":0,"o":""},"ı":{"ha":345,"x_min":0,"x_max":0,"o":""},"̀":{"ha":345,"x_min":0,"x_max":0,"o":""},"́":{"ha":345,"x_min":0,"x_max":0,"o":""},"̂":{"ha":345,"x_min":0,"x_max":0,"o":""},"̃":{"ha":345,"x_min":0,"x_max":0,"o":""},"̄":{"ha":345,"x_min":0,"x_max":0,"o":""},"̇":{"ha":345,"x_min":0,"x_max":0,"o":""},"̈":{"ha":345,"x_min":0,"x_max":0,"o":""},"̊":{"ha":345,"x_min":0,"x_max":0,"o":""},"̌":{"ha":345,"x_min":0,"x_max":0,"o":""},"̧":{"ha":345,"x_min":0,"x_max":0,"o":""},"–":{"ha":410,"x_min":17,"x_max":393,"o":"m 27 398 l 27 398 q 19 412 22 403 q 20 429 17 421 q 42 445 26 443 q 64 446 53 446 q 79 446 72 446 q 134 444 104 446 q 136 444 135 444 q 163 443 149 444 l 164 443 l 196 446 q 210 447 203 446 q 309 456 257 452 q 323 458 315 457 q 352 460 338 461 q 385 450 366 459 q 389 446 387 448 q 391 441 390 443 q 389 422 393 431 q 357 398 379 406 q 197 361 279 370 q 64 378 134 355 q 28 397 46 385 l 27 398 z "},"—":{"ha":410,"x_min":17,"x_max":393,"o":"m 27 398 l 27 398 q 19 412 22 403 q 20 429 17 421 q 42 445 26 443 q 64 446 53 446 q 79 446 72 446 q 134 444 104 446 q 136 444 135 444 q 163 443 149 444 l 164 443 l 196 446 q 210 447 203 446 q 309 456 257 452 q 323 458 315 457 q 352 460 338 461 q 385 450 366 459 q 389 446 387 448 q 391 441 390 443 q 389 422 393 431 q 357 398 379 406 q 197 361 279 370 q 64 378 134 355 q 28 397 46 385 l 27 398 z "},"‘":{"ha":186,"x_min":12,"x_max":186,"o":"m 170 623 l 170 623 q 184 609 180 621 q 184 601 186 606 q 178 593 182 595 q 157 579 168 585 q 157 578 157 578 q 147 572 152 576 q 99 530 119 557 q 92 513 95 522 q 88 503 90 509 l 83 492 l 96 490 q 115 489 106 490 q 116 489 115 489 q 147 486 134 488 q 180 451 173 480 q 178 423 184 437 q 161 401 173 409 q 149 395 155 397 q 117 389 134 389 q 54 413 83 389 q 19 500 12 450 q 97 608 29 565 q 149 625 125 625 q 170 623 159 625 z "},"’":{"ha":191,"x_min":17,"x_max":191,"o":"m 33 391 l 33 391 q 18 406 22 393 q 19 414 17 409 q 24 422 21 420 q 45 436 35 429 q 46 436 45 436 q 56 442 51 439 q 104 486 83 458 q 111 501 108 492 q 115 512 113 506 l 119 523 l 107 524 q 87 526 96 525 q 87 526 87 526 q 56 529 69 527 q 22 564 30 534 q 24 592 19 578 q 41 614 30 606 q 54 620 48 618 q 85 625 69 625 q 149 602 119 625 q 184 514 191 565 q 106 407 174 450 q 53 389 78 389 q 33 391 43 389 z "},"‚":{"ha":345,"x_min":0,"x_max":0,"o":""},"“":{"ha":348,"x_min":12,"x_max":348,"o":"m 332 625 l 332 625 q 341 624 338 626 q 347 612 346 620 q 344 597 348 604 q 314 568 332 581 q 303 559 309 564 q 260 511 278 537 q 257 483 252 498 q 277 467 264 469 q 292 467 285 467 q 313 464 304 466 q 334 450 325 460 q 344 429 343 441 q 338 405 345 416 q 297 375 323 381 q 250 379 273 371 q 211 407 227 388 q 197 532 168 467 q 297 615 227 587 q 332 625 314 621 m 170 615 l 170 615 q 184 601 180 613 q 184 593 186 598 q 178 585 182 587 q 157 571 168 578 q 157 570 157 571 q 147 564 152 568 q 99 522 119 549 q 92 505 95 515 q 92 505 92 505 q 88 495 90 500 l 83 484 l 96 483 q 115 481 106 481 q 116 481 116 481 q 147 477 134 480 q 180 444 173 472 q 178 415 184 429 q 161 393 173 401 q 149 387 155 389 q 117 382 134 382 q 54 406 83 382 q 19 493 12 442 q 97 600 29 557 q 149 618 125 617 q 170 615 159 618 z "},"”":{"ha":353,"x_min":17,"x_max":353,"o":"m 33 374 l 33 374 q 24 376 27 373 q 18 387 19 379 q 21 401 17 395 q 51 431 33 418 q 62 440 56 435 q 104 488 87 463 q 108 516 113 502 q 87 532 102 530 q 73 533 80 532 q 52 536 62 533 q 31 549 41 539 q 21 571 22 558 q 26 595 20 583 q 68 624 41 618 q 115 620 92 629 q 154 593 138 611 q 169 468 197 533 q 68 384 138 413 q 33 374 51 378 m 195 384 l 195 384 q 180 398 185 386 q 181 407 179 401 q 186 414 183 412 q 208 428 197 422 q 209 429 208 429 q 218 435 214 431 q 266 477 245 450 q 273 494 270 484 q 273 494 273 494 q 277 505 275 498 l 281 515 l 270 517 q 250 518 258 517 q 249 518 250 518 q 218 522 231 519 q 184 556 192 527 q 186 584 181 570 q 204 606 192 598 q 216 612 210 610 q 248 618 231 618 q 311 594 281 618 q 347 506 353 557 q 268 399 336 442 q 216 382 240 382 q 195 384 206 381 z "},"„":{"ha":345,"x_min":0,"x_max":0,"o":""},"†":{"ha":345,"x_min":0,"x_max":0,"o":""},"‡":{"ha":345,"x_min":0,"x_max":0,"o":""},"•":{"ha":345,"x_min":0,"x_max":0,"o":""},"…":{"ha":345,"x_min":0,"x_max":0,"o":""},"‹":{"ha":345,"x_min":0,"x_max":0,"o":""},"›":{"ha":345,"x_min":0,"x_max":0,"o":""},"⁄":{"ha":496,"x_min":-1,"x_max":653,"o":"m 16 -153 l 16 -153 q 0 -104 3 -144 q 0 -77 -1 -90 q 19 5 4 -35 q 54 84 35 45 q 75 132 64 108 q 154 295 104 201 q 521 880 319 606 q 587 963 547 916 q 614 985 600 977 q 641 985 627 993 q 651 973 648 979 q 652 961 653 966 q 644 928 650 941 q 608 862 627 895 q 554 772 581 817 q 463 620 509 697 q 313 355 385 486 q 183 96 252 245 q 104 -60 142 11 q 64 -123 90 -88 q 39 -146 54 -136 q 28 -152 34 -150 q 16 -153 22 -155 z "},"∕":{"ha":496,"x_min":-1,"x_max":653,"o":"m 16 -153 l 16 -153 q 0 -104 3 -144 q 0 -77 -1 -90 q 19 5 4 -35 q 54 84 35 45 q 75 132 64 108 q 154 295 104 201 q 521 880 319 606 q 587 963 547 916 q 614 985 600 977 q 641 985 627 993 q 651 973 648 979 q 652 961 653 966 q 644 928 650 941 q 608 862 627 895 q 554 772 581 817 q 463 620 509 697 q 313 355 385 486 q 183 96 252 245 q 104 -60 142 11 q 64 -123 90 -88 q 39 -146 54 -136 q 28 -152 34 -150 q 16 -153 22 -155 z "},"₣":{"ha":345,"x_min":0,"x_max":0,"o":""},"₤":{"ha":345,"x_min":0,"x_max":0,"o":""},"₧":{"ha":345,"x_min":0,"x_max":0,"o":""},"€":{"ha":345,"x_min":0,"x_max":0,"o":""},"№":{"ha":345,"x_min":0,"x_max":0,"o":""},"™":{"ha":345,"x_min":0,"x_max":0,"o":""},"∂":{"ha":345,"x_min":0,"x_max":0,"o":""},"∆":{"ha":345,"x_min":0,"x_max":0,"o":""},"∏":{"ha":345,"x_min":0,"x_max":0,"o":""},"∑":{"ha":345,"x_min":0,"x_max":0,"o":""},"−":{"ha":410,"x_min":17,"x_max":393,"o":"m 27 398 l 27 398 q 19 412 22 403 q 20 429 17 421 q 42 445 26 443 q 64 446 53 446 q 79 446 72 446 q 134 444 104 446 q 136 444 135 444 q 163 443 149 444 l 164 443 l 196 446 q 210 447 203 446 q 309 456 257 452 q 323 458 315 457 q 352 460 338 461 q 385 450 366 459 q 389 446 387 448 q 391 441 390 443 q 389 422 393 431 q 357 398 379 406 q 197 361 279 370 q 64 378 134 355 q 28 397 46 385 l 27 398 z "},"√":{"ha":345,"x_min":0,"x_max":0,"o":""},"∞":{"ha":345,"x_min":0,"x_max":0,"o":""},"∫":{"ha":345,"x_min":0,"x_max":0,"o":""},"≈":{"ha":345,"x_min":0,"x_max":0,"o":""},"≤":{"ha":345,"x_min":0,"x_max":0,"o":""},"≥":{"ha":345,"x_min":0,"x_max":0,"o":""},"ﬁ":{"ha":345,"x_min":0,"x_max":0,"o":""},"ﬂ":{"ha":345,"x_min":0,"x_max":0,"o":""}}}
